<svg enable-background="new 0 0 140 140" height="512" viewBox="0 0 140 140" width="512" xmlns="http://www.w3.org/2000/svg"><circle cx="70" cy="70" fill="#dad7dc" r="64"/><path d="m133.6599731 63.4099731c.2300415 2.169983.3400269 4.3699952.3400269 6.5900269 0 35.3499756-28.6500244 64-64 64-7.3400269 0-14.3800049-1.25-20.9400024-3.5200195l-24.9799805-24.9799805h.0100098c-.7800293-.7399902-1.2700195-1.7800293-1.2700195-2.9400024v-.9100342c0-2.2399902 1.8099976-4.0499878 4.0499878-4.0499878h1.9400024v-53.9400025c0-3.4899902 2.8400269-6.3300171 6.3300171-6.3300171h69.7199707c1.7900391 0 3.4100342.75 4.5700073 1.960022l.0700073-.039978z" opacity=".1"/><path d="m104.8579102 37.3349228h-69.7158051c-3.4948349 0-6.3278828 2.833046-6.3278828 6.3278122v53.9395905h82.3714981v-53.9395905c.000002-3.4947662-2.833044-6.3278122-6.3278102-6.3278122z" fill="#e6e7e8"/><path d="m35.488579 44.009007h69.022446v46.919163h-69.022446z" fill="#509fd7"/><path d="m113.131958 97.4023132h-86.2640037c-2.236042 0-4.0487118 1.8126755-4.0487118 4.0487137v.9102859c0 2.2360382 1.8126698 4.0487061 4.0487118 4.0487061h86.2640076c2.2360382 0 4.0487061-1.8126678 4.0487061-4.0487061v-.9102859c-.0000039-2.2360382-1.8126718-4.0487137-4.04871-4.0487137z" fill="#32796b"/><circle cx="70" cy="101.906" fill="#e6e7e8" r="1.793"/><path d="m58.0988274 88.0601959-.2311935.1649704c-.3524132.2514725-.8419571.1696396-1.0934258-.1827774l-1.4453468-2.0255356c-.2514687-.3524094-.1696358-.8419495.1827774-1.0934219l.2311935-.1649704c.3524132-.2514725.8419571-.1696396 1.0934258.1827774l1.4453468 2.025528c.2514686.3524169.1696357.841957-.1827774 1.0934295z" fill="#ececec"/><path d="m59.2376709 90.9281693c-.0941772-.3856201-.2406616-.7651367-.4852295-1.114502l-5.2072754-7.4385986-6.2825928 2.5542603 4.1993408 5.9988403z" fill="#344e5c"/><path d="m47.4331741 71.5746002 4.7312813 11.6372833c7.5447884-3.4732056 16.6589775-4.1552277 27.0767937.4897385l-12.7545166-31.3715935c-4.2211914 10.5965386-11.2256317 16.4678002-19.0535584 19.2445717z" fill="#ececec"/><path d="m48.2919579 86.3992844 6.4004784-2.6021957c1.6667709-.6776505 2.4686165-2.5781784 1.790966-4.2449493l-3.4028091-8.3697052c-.6776466-1.6667709-2.5781746-2.4686127-4.2449455-1.7909698l-6.4004785 2.6021956c-1.6667709.6776505-2.4686127 2.5781784-1.790966 4.2449493l3.4028091 8.3697052c.6776467 1.6667709 2.5781746 2.4686127 4.2449456 1.7909699z" fill="#cd5148"/><path d="m39.2926788 77.08461c-.6884766.2799072-1.0196915 1.064949-.739769 1.7534637l2.1822243 5.3675003c.2799072.6884766 1.0649529 1.0196915 1.7534294.7397842l1.4549904-.5915451-3.1958885-7.8607483z" fill="#ececec"/><path d="m78.7206879 85.1914139-.0321808.0130844c-.8342133.3391647-1.7942429-.0658798-2.1334076-.9000931l-12.4131012-30.5318336c-.3391609-.8342133.0658875-1.7942467.9001007-2.1334076l.0321808-.0130844c.8342133-.3391609 1.7942429.0658836 2.1334076.9001007l12.4131012 30.531826c.3391571.8342132-.0658875 1.7942505-.9001007 2.1334076z" fill="#cd5148"/><g fill="#ba9a43"><path d="m50.8327332 72.4744034-7.6768608 3.1211243c-.2211494.0899124-.4756584-.0174713-.565567-.2386169l-.0034714-.0085298c-.0899124-.2211533.0174675-.4756622.2386169-.5655746l7.6768646-3.1211243c.2211494-.0899124.4756546.0174637.565567.2386169l.0034714.0085297c.0899086.2211533-.0174675.4756623-.2386207.5655747z"/><path d="m51.7000885 74.6077881-7.6768608 3.1211243c-.2211494.0899124-.4756584-.0174713-.5655708-.2386169l-.0034676-.0085297c-.0899124-.2211533.0174675-.4756622.2386169-.5655746l7.6768646-3.1211243c.2211494-.0899124.4756546.0174637.565567.2386169l.0034676.0085297c.0899125.2211532-.0174636.4756622-.2386169.5655746z"/><path d="m52.5674438 76.7411728-7.6768608 3.1211243c-.2211533.0899124-.4756584-.0174713-.5655708-.2386169l-.0034676-.0085297c-.0899124-.2211533.0174675-.4756622.2386169-.5655746l7.6768608-3.1211243c.2211533-.0899124.4756584.0174637.5655708.2386169l.0034676.0085297c.0899125.2211532-.0174636.4756622-.2386169.5655746z"/><path d="m53.4347992 78.8745575-7.6768608 3.1211243c-.2211533.0899124-.4756584-.0174637-.5655708-.2386169l-.0034676-.0085297c-.0899124-.2211533.0174637-.4756622.2386169-.5655746l7.6768608-3.1211243c.2211533-.0899124.4756584.0174637.5655708.2386169l.0034676.0085297c.0899125.2211532-.0174675.4756622-.2386169.5655746z"/><path d="m54.3021545 81.0079422-7.6768608 3.1211243c-.2211533.0899124-.4756584-.0174637-.5655708-.2386169l-.0034676-.0085297c-.0899124-.2211533.0174637-.4756622.2386169-.5655746l7.6768608-3.1211243c.2211494-.0899124.4756584.0174637.5655708.2386169l.0034676.0085297c.0899125.2211532-.0174674.4756622-.2386169.5655746z"/></g><path d="m90.5577927 48.099144c-6.0229568 0-10.9055939 3.7860641-10.9055939 8.4563599 0 1.0422592.254776 2.0361176.6995544 2.9580383-1.1011047.5421104-1.8369217 1.4899979-1.8369217 2.5762749 0 .4159126.1091003.8117142.3031235 1.1731567-.0715714-.0048561-.1405029-.0166779-.2137146-.0166779-1.3534012 0-2.4505005.8507195-2.4505005 1.9001045 0 1.0494385 1.0970993 1.9001541 2.4505005 1.9001541 1.3533478 0 2.4505005-.8507156 2.4505005-1.9001541 0-.0736847-.0174713-.1435623-.0279694-.2150803.4443588.1345901.9240799.2150803 1.4299316.2150803 1.2189713 0 2.2950592-.4381332 3.0181046-1.1120911 1.5184479.6218643 3.2463226.9775543 5.0829849.9775543 6.0230103 0 10.9055939-3.7860107 10.9055939-8.4563599 0-4.6702956-4.8825836-8.4563597-10.9055938-8.4563597z" fill="#feed32"/><g fill="#d6b251"><circle cx="84.089" cy="57.029" r="1.876"/><circle cx="90.493" cy="57.029" r="1.876"/><circle cx="96.897" cy="57.029" r="1.876"/></g></svg>