<svg version="1.1" id="Capa_1" xmlns="http://www.w3.org/2000/svg" xmlns:xlink="http://www.w3.org/1999/xlink" height="512" width="512"
	 viewBox="0 0 491.52 491.52" style="enable-background:new 0 0 491.52 491.52;" xml:space="preserve">
<circle style="fill:#334D5C;" cx="245.76" cy="245.76" r="221.76"/>
<path style="opacity:0.1;enable-background:new;" d="m370.26319,129.55081l-20.633,-20.634l-0.461,-0.461c-1.945,-2.048 -4.659,-3.379 -7.68,-3.379c-5.837,0 -10.547,4.71 -10.547,10.547l0,13.926l-152.269,0l-21.094,-21.043l-0.102,-0.103c-1.895,-2.048 -4.659,-3.328 -7.68,-3.328c-5.837,0 -10.548,4.71 -10.548,10.547l0,13.926l-24.576,0c-5.427,0 -9.83,4.403 -9.83,9.831l0,237.465c0,2.355 0.87,4.506 2.253,6.195l0,0.051l1.331,1.331l0.205,0.153l99.8261,79.79477c141.25851,21.10707 264.70065,-87.35917 258.80809,-230.23066l-82.92219,-100.8001l-14.081,-3.788l0,-0.00001z"/>
<path style="fill:#E56353;" d="M376.754,129.454H114.766c-5.416,0-9.806,4.391-9.806,9.807v48.646h281.6v-48.646
	C386.56,133.845,382.17,129.454,376.754,129.454z"/>
<path style="fill:#E1E6E9;" d="M104.96,187.907v188.847c0,5.416,4.391,9.806,9.806,9.806h261.987c5.416,0,9.806-4.39,9.806-9.806
	V187.907H104.96z"/>
<path style="fill:#EBF0F3;" d="M104.96,187.907v178.607c0,5.416,4.391,9.806,9.806,9.806h261.987c5.416,0,9.806-4.39,9.806-9.806
	V187.907H104.96z"/>
<circle style="fill:#D15241;" cx="149.91" cy="149.91" r="14.71"/>
<path style="fill:#EBF0F3;" d="M149.92,104.96c-5.826,0-10.549,4.723-10.549,10.549v32.623c0,5.826,4.723,10.549,10.549,10.549
	c5.826,0,10.549-4.723,10.549-10.549v-32.623C160.469,109.683,155.746,104.96,149.92,104.96z"/>
<circle style="fill:#D15241;" cx="341.61" cy="149.91" r="14.71"/>
<path style="fill:#EBF0F3;" d="M341.6,104.96c-5.826,0-10.549,4.723-10.549,10.549v32.623c0,5.826,4.723,10.549,10.549,10.549
	c5.826,0,10.549-4.723,10.549-10.549v-32.623C352.149,109.683,347.426,104.96,341.6,104.96z"/>
<g>
	<rect x="228.16" y="210.48" style="fill:#D5D6DB;" width="35.19" height="35.19"/>
	<rect x="280.74" y="210.48" style="fill:#D5D6DB;" width="35.19" height="35.19"/>
	<rect x="333.31" y="210.48" style="fill:#D5D6DB;" width="35.19" height="35.19"/>
	<rect x="123.03" y="264.52" style="fill:#D5D6DB;" width="35.19" height="35.19"/>
	<rect x="175.62" y="264.52" style="fill:#D5D6DB;" width="35.19" height="35.19"/>
	<rect x="228.16" y="264.52" style="fill:#D5D6DB;" width="35.19" height="35.19"/>
	<rect x="280.74" y="264.52" style="fill:#D5D6DB;" width="35.19" height="35.19"/>
	<rect x="333.31" y="264.52" style="fill:#D5D6DB;" width="35.19" height="35.19"/>
	<rect x="123.03" y="318.57" style="fill:#D5D6DB;" width="35.19" height="35.19"/>
	<rect x="175.62" y="318.57" style="fill:#D5D6DB;" width="35.19" height="35.19"/>
	<rect x="228.16" y="318.57" style="fill:#D5D6DB;" width="35.19" height="35.19"/>
</g>
<g>
</g>
<g>
</g>
<g>
</g>
<g>
</g>
<g>
</g>
<g>
</g>
<g>
</g>
<g>
</g>
<g>
</g>
<g>
</g>
<g>
</g>
<g>
</g>
<g>
</g>
<g>
</g>
<g>
</g>
</svg>
