<?xml version="1.0" encoding="iso-8859-1"?>
<!-- Generator: Adobe Illustrator 19.0.0, SVG Export Plug-In . SVG Version: 6.00 Build 0)  -->
<svg version="1.1" id="Capa_1" xmlns="http://www.w3.org/2000/svg" xmlns:xlink="http://www.w3.org/1999/xlink" x="0px" y="0px"
	 viewBox="0 0 491.52 491.52" style="enable-background:new 0 0 491.52 491.52;" xml:space="preserve">
<circle style="fill:#334D5C;" cx="245.76" cy="245.76" r="245.76"/>
<path style="opacity:0.1;enable-background:new    ;" d="M384.307,133.018c-1.792-2.202-4.506-3.584-7.578-3.584h-6.349
	L349.747,108.8l-0.461-0.461c-1.945-2.048-4.659-3.379-7.68-3.379c-5.837,0-10.547,4.71-10.547,10.547v13.926H178.79l-21.094-21.043
	l-0.102-0.103c-1.895-2.048-4.659-3.328-7.68-3.328c-5.837,0-10.548,4.71-10.548,10.547v13.926H114.79
	c-5.427,0-9.83,4.403-9.83,9.831v237.465c0,2.355,0.87,4.506,2.253,6.195v0.051l1.331,1.331l0.205,0.153l104.904,104.904
	c10.516,1.373,21.217,2.156,32.107,2.156c135.73,0,245.76-110.031,245.76-245.76c0-1.894-0.1-3.764-0.143-5.649L384.461,133.222
	L384.307,133.018z"/>
<path style="fill:#E56353;" d="M376.754,129.454H114.766c-5.416,0-9.806,4.391-9.806,9.807v48.646h281.6v-48.646
	C386.56,133.845,382.17,129.454,376.754,129.454z"/>
<path style="fill:#E1E6E9;" d="M104.96,187.907v188.847c0,5.416,4.391,9.806,9.806,9.806h261.987c5.416,0,9.806-4.39,9.806-9.806
	V187.907H104.96z"/>
<path style="fill:#EBF0F3;" d="M104.96,187.907v178.607c0,5.416,4.391,9.806,9.806,9.806h261.987c5.416,0,9.806-4.39,9.806-9.806
	V187.907H104.96z"/>
<circle style="fill:#D15241;" cx="149.91" cy="149.91" r="14.71"/>
<path style="fill:#EBF0F3;" d="M149.92,104.96c-5.826,0-10.549,4.723-10.549,10.549v32.623c0,5.826,4.723,10.549,10.549,10.549
	c5.826,0,10.549-4.723,10.549-10.549v-32.623C160.469,109.683,155.746,104.96,149.92,104.96z"/>
<circle style="fill:#D15241;" cx="341.61" cy="149.91" r="14.71"/>
<path style="fill:#EBF0F3;" d="M341.6,104.96c-5.826,0-10.549,4.723-10.549,10.549v32.623c0,5.826,4.723,10.549,10.549,10.549
	c5.826,0,10.549-4.723,10.549-10.549v-32.623C352.149,109.683,347.426,104.96,341.6,104.96z"/>
<g>
	<rect x="228.16" y="210.48" style="fill:#D5D6DB;" width="35.19" height="35.19"/>
	<rect x="280.74" y="210.48" style="fill:#D5D6DB;" width="35.19" height="35.19"/>
	<rect x="333.31" y="210.48" style="fill:#D5D6DB;" width="35.19" height="35.19"/>
	<rect x="123.03" y="264.52" style="fill:#D5D6DB;" width="35.19" height="35.19"/>
	<rect x="175.62" y="264.52" style="fill:#D5D6DB;" width="35.19" height="35.19"/>
	<rect x="228.16" y="264.52" style="fill:#D5D6DB;" width="35.19" height="35.19"/>
	<rect x="280.74" y="264.52" style="fill:#D5D6DB;" width="35.19" height="35.19"/>
	<rect x="333.31" y="264.52" style="fill:#D5D6DB;" width="35.19" height="35.19"/>
	<rect x="123.03" y="318.57" style="fill:#D5D6DB;" width="35.19" height="35.19"/>
	<rect x="175.62" y="318.57" style="fill:#D5D6DB;" width="35.19" height="35.19"/>
	<rect x="228.16" y="318.57" style="fill:#D5D6DB;" width="35.19" height="35.19"/>
</g>
<g>
</g>
<g>
</g>
<g>
</g>
<g>
</g>
<g>
</g>
<g>
</g>
<g>
</g>
<g>
</g>
<g>
</g>
<g>
</g>
<g>
</g>
<g>
</g>
<g>
</g>
<g>
</g>
<g>
</g>
</svg>
