<svg enable-background="new 0 0 140 140" height="512" viewBox="0 0 140 140" width="512" xmlns="http://www.w3.org/2000/svg"><circle cx="70" cy="70" fill="#fed35b" r="64"/><path d="m94.7649612 25.6097069h-54.260006c-.9199829 0-1.6600342.75-1.6600342 1.6699829v39.8200111c0 .4500122.1800537.8599854.4700317 1.1500244v.0099487c.0100098.0100098.0200195.0200195.0299683.0300293l10.0500488 9.9099731c-.210022.2600098-.3500366.5900269-.3500366.9500122 0 .3300171.1199951.6400146.3099976.8900146l.0200195.0200195c.0800171.1099854.1799927.1999512.289978.2799683l4.0400391 3.8699951h-16.5599975c-.6900024 0-1.25.5599976-1.25 1.25v20.8900146c0 .3399658.1399536.6599731.3699951.8800049l26.6392822 26.3696899c2.3309898.2572632 4.6962242.4005737 7.0957603.4005737 35.3463135 0 64.0000076-28.6538086 64.0000076-64 0-2.0598755-.1067505-4.0944214-.2970581-6.104496l-37.6179884-37.6257932c-.3000489-.3999634-.7800293-.6599731-1.3200074-.6599731z" opacity=".1"/><path d="m110.1963959 86.6398392h-.8910675v-5.5082932c0-.850174-.6909332-1.5411072-1.5411072-1.5411072h-10.6084671c-1.9553146 0-3.5460205-1.5907059-3.5460205-3.5451508 0-1.9553146 1.5907059-3.5460129 3.5460205-3.5460129h7.3226318c4.6633453 0 8.4564972-3.7931595 8.4564972-8.4556274s-3.7931519-8.4556236-8.4564972-8.4556236h-9.0173569v-.8910713h9.0173569c5.154129 0 9.3475723 4.1925697 9.3475723 9.3466949s-4.1934433 9.3466949-9.3475723 9.3466949h-7.3226318c-1.4636612 0-2.6549454 1.1912918-2.6549454 2.6549454 0 1.4636612 1.1912842 2.6540756 2.6549454 2.6540756h10.6084671c1.3409576 0 2.4321747 1.091217 2.4321747 2.4321823z" fill="#467082"/><path d="m56.8962059 78.4014664h21.4823723c-2.9314117-4.1538849-2.8725739-8.3081207.1932449-12.4614563-7.28965-1.8261642-14.5792618-1.8261642-21.8689156 0 3.0658265 4.1536941 3.1247101 8.3079376.1932984 12.4614563z" fill="#344d5b"/><path d="m94.7679062 25.6128635h-54.2610741c-.9183464 0-1.6629486.7445126-1.6629486 1.6630402v35.4514713l20.0724907 2.4251976c0 .9183426-.5354195.8934937.3829231.8934937l27.5706062-1.1913223c.9184341 0 .0850906.7907028.0850906-.1276474l9.4758606-1.9997215v-35.4514714c.0000001-.9185276-.7445144-1.6630402-1.6629485-1.6630402z" fill="#344d5b"/><path d="m38.8438835 62.7651367v4.3322525c0 .9183426.7446022 1.6628571 1.6629486 1.6628571h54.2610741c.9184341 0 1.6629486-.7445145 1.6629486-1.6628571v-4.3322525z" fill="#ededed"/><path d="m52.239449 18.163141h30.795748v51.641491h-30.795748z" fill="#4abba4" transform="matrix(0 1 -1 0 111.621 -23.653)"/><path d="m84.7688446 77.6801758h-34.2629547c-.8091125 0-1.4649811.6557846-1.4649811 1.4648895v.0001831c0 .8089294.6558685 1.4648895 1.4649811 1.4648895h34.2629547c.8090668 0 1.4649811-.6559601 1.4649811-1.4648895v-.0001831c0-.8091049-.6559143-1.4648895-1.4649811-1.4648895z" fill="#ededed"/><path d="m89.625275 65.335686h2.768884v1.165846h-2.768884z" fill="#de594e"/><path d="m84.816162 65.335686h2.768884v1.165846h-2.768884z" fill="#48b29b"/><path d="m98.1317215 84.2089615h-60.9887466c-.6903877 0-1.2500801.5597534-1.2500801 1.2502441v20.8904037c0 .6904984.5596924 1.2500305 1.2500801 1.2500305h60.9887466c.6904449 0 1.2501373-.5595322 1.2501373-1.2500305v-20.8904037c0-.6904907-.5596924-1.2502441-1.2501373-1.2502441z" fill="#344d5b"/><g fill="#467082"><path d="m41.5846367 87.2508469h-2.3477859c-.2453804 0-.4443245.198822-.4443245.4443283v2.347847c0 .2452545.1989441.4443283.4443245.4443283h2.3477859c.2453804 0 .4443283-.1990738.4443283-.4443283v-2.347847c0-.2455063-.1989479-.4443283-.4443283-.4443283z"/><path d="m46.534935 87.2508469h-2.347786c-.2453804 0-.4443283.198822-.4443283.4443283v2.347847c0 .2452545.1989479.4443283.4443283.4443283h2.3477859c.2453804 0 .4443245-.1990738.4443245-.4443283v-2.347847c.0000001-.2455063-.198944-.4443283-.4443244-.4443283z"/><path d="m51.4852295 87.2508469h-2.3477859c-.2453804 0-.4443245.198822-.4443245.4443283v2.347847c0 .2452545.1989441.4443283.4443245.4443283h2.3477859c.2453804 0 .4443283-.1990738.4443283-.4443283v-2.347847c0-.2455063-.1989479-.4443283-.4443283-.4443283z"/><path d="m56.4355278 87.2508469h-2.3477859c-.2453804 0-.4443283.198822-.4443283.4443283v2.347847c0 .2452545.1989479.4443283.4443283.4443283h2.3477859c.2453804 0 .4443245-.1990738.4443245-.4443283v-2.347847c0-.2455063-.1989441-.4443283-.4443245-.4443283z"/><path d="m61.3858223 87.2508469h-2.3477859c-.2453766 0-.4443245.198822-.4443245.4443283v2.347847c0 .2452545.1989479.4443283.4443245.4443283h2.3477859c.2453804 0 .4443283-.1990738.4443283-.4443283v-2.347847c0-.2455063-.1989479-.4443283-.4443283-.4443283z"/><path d="m66.3361206 87.2508469h-2.3477859c-.2453804 0-.4443283.198822-.4443283.4443283v2.347847c0 .2452545.1989479.4443283.4443283.4443283h2.3477859c.2453766 0 .4443283-.1990738.4443283-.4443283v-2.347847c0-.2455063-.1989517-.4443283-.4443283-.4443283z"/><path d="m71.2864151 87.2508469h-2.3477859c-.2453766 0-.4443207.198822-.4443207.4443283v2.347847c0 .2452545.1989441.4443283.4443207.4443283h2.3477859c.2453842 0 .4443283-.1990738.4443283-.4443283v-2.347847c0-.2455063-.1989441-.4443283-.4443283-.4443283z"/><path d="m76.2367096 87.2508469h-2.3477783c-.2453842 0-.4443283.198822-.4443283.4443283v2.347847c0 .2452545.1989441.4443283.4443283.4443283h2.3477783c.2453842 0 .4443283-.1990738.4443283-.4443283v-2.347847c0-.2455063-.1989441-.4443283-.4443283-.4443283z"/><path d="m81.1870117 87.2508469h-2.3477859c-.2453842 0-.4443283.198822-.4443283.4443283v2.347847c0 .2452545.1989441.4443283.4443283.4443283h2.3477859c.2453766 0 .4443207-.1990738.4443207-.4443283v-2.347847c0-.2455063-.1989441-.4443283-.4443207-.4443283z"/><path d="m86.1373062 87.2508469h-2.3477859c-.2453766 0-.4443283.198822-.4443283.4443283v2.347847c0 .2452545.1989517.4443283.4443283.4443283h2.3477859c.2453766 0 .4443283-.1990738.4443283-.4443283v-2.347847c0-.2455063-.1989517-.4443283-.4443283-.4443283z"/><path d="m91.0876007 87.2508469h-2.3477859c-.2453766 0-.4443207.198822-.4443207.4443283v2.347847c0 .2452545.1989441.4443283.4443207.4443283h2.3477859c.2453842 0 .4443283-.1990738.4443283-.4443283v-2.347847c0-.2455063-.1989441-.4443283-.4443283-.4443283z"/><path d="m96.0378952 87.2508469h-2.3477783c-.2453842 0-.4443283.198822-.4443283.4443283v2.347847c0 .2452545.1989441.4443283.4443283.4443283h2.3477783c.2453842 0 .4443283-.1990738.4443283-.4443283v-2.347847c0-.2455063-.1989441-.4443283-.4443283-.4443283z"/><path d="m41.5846367 91.5706558h-2.3477859c-.2453804 0-.4443245.1988144-.4443245.4443207v2.3478546c0 .2452469.1989441.4443283.4443245.4443283h2.3477859c.2453804 0 .4443283-.1990814.4443283-.4443283v-2.3478546c0-.2455063-.1989479-.4443207-.4443283-.4443207z"/><path d="m46.534935 91.5706558h-2.347786c-.2453804 0-.4443283.1988144-.4443283.4443207v2.3478546c0 .2452469.1989479.4443283.4443283.4443283h2.3477859c.2453804 0 .4443245-.1990814.4443245-.4443283v-2.3478546c.0000001-.2455063-.198944-.4443207-.4443244-.4443207z"/><path d="m51.4852295 91.5706558h-2.3477859c-.2453804 0-.4443245.1988144-.4443245.4443207v2.3478546c0 .2452469.1989441.4443283.4443245.4443283h2.3477859c.2453804 0 .4443283-.1990814.4443283-.4443283v-2.3478546c0-.2455063-.1989479-.4443207-.4443283-.4443207z"/><path d="m56.4355278 91.5706558h-2.3477859c-.2453804 0-.4443283.1988144-.4443283.4443207v2.3478546c0 .2452469.1989479.4443283.4443283.4443283h2.3477859c.2453804 0 .4443245-.1990814.4443245-.4443283v-2.3478546c0-.2455063-.1989441-.4443207-.4443245-.4443207z"/><path d="m61.3858223 91.5706558h-2.3477859c-.2453766 0-.4443245.1988144-.4443245.4443207v2.3478546c0 .2452469.1989479.4443283.4443245.4443283h2.3477859c.2453804 0 .4443283-.1990814.4443283-.4443283v-2.3478546c0-.2455063-.1989479-.4443207-.4443283-.4443207z"/><path d="m66.3361206 91.5706558h-2.3477859c-.2453804 0-.4443283.1988144-.4443283.4443207v2.3478546c0 .2452469.1989479.4443283.4443283.4443283h2.3477859c.2453766 0 .4443283-.1990814.4443283-.4443283v-2.3478546c0-.2455063-.1989517-.4443207-.4443283-.4443207z"/><path d="m71.2864151 91.5706558h-2.3477859c-.2453766 0-.4443207.1988144-.4443207.4443207v2.3478546c0 .2452469.1989441.4443283.4443207.4443283h2.3477859c.2453842 0 .4443283-.1990814.4443283-.4443283v-2.3478546c0-.2455063-.1989441-.4443207-.4443283-.4443207z"/><path d="m76.2367096 91.5706558h-2.3477783c-.2453842 0-.4443283.1988144-.4443283.4443207v2.3478546c0 .2452469.1989441.4443283.4443283.4443283h2.3477783c.2453842 0 .4443283-.1990814.4443283-.4443283v-2.3478546c0-.2455063-.1989441-.4443207-.4443283-.4443207z"/><path d="m81.1870117 91.5706558h-2.3477859c-.2453842 0-.4443283.1988144-.4443283.4443207v2.3478546c0 .2452469.1989441.4443283.4443283.4443283h2.3477859c.2453766 0 .4443207-.1990814.4443207-.4443283v-2.3478546c0-.2455063-.1989441-.4443207-.4443207-.4443207z"/><path d="m86.1373062 91.5706558h-2.3477859c-.2453766 0-.4443283.1988144-.4443283.4443207v2.3478546c0 .2452469.1989517.4443283.4443283.4443283h2.3477859c.2453766 0 .4443283-.1990814.4443283-.4443283v-2.3478546c0-.2455063-.1989517-.4443207-.4443283-.4443207z"/><path d="m91.0876007 91.5706558h-2.3477859c-.2453766 0-.4443207.1988144-.4443207.4443207v2.3478546c0 .2452469.1989441.4443283.4443207.4443283h2.3477859c.2453842 0 .4443283-.1990814.4443283-.4443283v-2.3478546c0-.2455063-.1989441-.4443207-.4443283-.4443207z"/><path d="m96.0378952 91.5706558h-2.3477783c-.2453842 0-.4443283.1988144-.4443283.4443207v2.3478546c0 .2452469.1989441.4443283.4443283.4443283h2.3477783c.2453842 0 .4443283-.1990814.4443283-.4443283v-2.3478546c0-.2455063-.1989441-.4443207-.4443283-.4443207z"/><path d="m41.5846367 95.8904572h-2.3477859c-.2453804 0-.4443245.198822-.4443245.4443283v2.347847c0 .2452545.1989441.4443283.4443245.4443283h2.3477859c.2453804 0 .4443283-.1990738.4443283-.4443283v-2.347847c0-.2455063-.1989479-.4443283-.4443283-.4443283z"/><path d="m46.534935 95.8904572h-2.347786c-.2453804 0-.4443283.198822-.4443283.4443283v2.347847c0 .2452545.1989479.4443283.4443283.4443283h2.3477859c.2453804 0 .4443245-.1990738.4443245-.4443283v-2.347847c.0000001-.2455063-.198944-.4443283-.4443244-.4443283z"/><path d="m51.4852295 95.8904572h-2.3477859c-.2453804 0-.4443245.198822-.4443245.4443283v2.347847c0 .2452545.1989441.4443283.4443245.4443283h2.3477859c.2453804 0 .4443283-.1990738.4443283-.4443283v-2.347847c0-.2455063-.1989479-.4443283-.4443283-.4443283z"/><path d="m56.4355278 95.8904572h-2.3477859c-.2453804 0-.4443283.198822-.4443283.4443283v2.347847c0 .2452545.1989479.4443283.4443283.4443283h2.3477859c.2453804 0 .4443245-.1990738.4443245-.4443283v-2.347847c0-.2455063-.1989441-.4443283-.4443245-.4443283z"/><path d="m61.3858223 95.8904572h-2.3477859c-.2453766 0-.4443245.198822-.4443245.4443283v2.347847c0 .2452545.1989479.4443283.4443245.4443283h2.3477859c.2453804 0 .4443283-.1990738.4443283-.4443283v-2.347847c0-.2455063-.1989479-.4443283-.4443283-.4443283z"/><path d="m66.3361206 95.8904572h-2.3477859c-.2453804 0-.4443283.198822-.4443283.4443283v2.347847c0 .2452545.1989479.4443283.4443283.4443283h2.3477859c.2453766 0 .4443283-.1990738.4443283-.4443283v-2.347847c0-.2455063-.1989517-.4443283-.4443283-.4443283z"/><path d="m71.2864151 95.8904572h-2.3477859c-.2453766 0-.4443207.198822-.4443207.4443283v2.347847c0 .2452545.1989441.4443283.4443207.4443283h2.3477859c.2453842 0 .4443283-.1990738.4443283-.4443283v-2.347847c0-.2455063-.1989441-.4443283-.4443283-.4443283z"/><path d="m76.2367096 95.8904572h-2.3477783c-.2453842 0-.4443283.198822-.4443283.4443283v2.347847c0 .2452545.1989441.4443283.4443283.4443283h2.3477783c.2453842 0 .4443283-.1990738.4443283-.4443283v-2.347847c0-.2455063-.1989441-.4443283-.4443283-.4443283z"/><path d="m81.1870117 95.8904572h-2.3477859c-.2453842 0-.4443283.198822-.4443283.4443283v2.347847c0 .2452545.1989441.4443283.4443283.4443283h2.3477859c.2453766 0 .4443207-.1990738.4443207-.4443283v-2.347847c0-.2455063-.1989441-.4443283-.4443207-.4443283z"/><path d="m86.1373062 95.8904572h-2.3477859c-.2453766 0-.4443283.198822-.4443283.4443283v2.347847c0 .2452545.1989517.4443283.4443283.4443283h2.3477859c.2453766 0 .4443283-.1990738.4443283-.4443283v-2.347847c0-.2455063-.1989517-.4443283-.4443283-.4443283z"/><path d="m91.0876007 95.8904572h-2.3477859c-.2453766 0-.4443207.198822-.4443207.4443283v2.347847c0 .2452545.1989441.4443283.4443207.4443283h2.3477859c.2453842 0 .4443283-.1990738.4443283-.4443283v-2.347847c0-.2455063-.1989441-.4443283-.4443283-.4443283z"/><path d="m41.5846367 100.2102661h-2.3477859c-.2453804 0-.4443245.198822-.4443245.4443283v2.347847c0 .2452545.1989441.4443283.4443245.4443283h2.3477859c.2453804 0 .4443283-.1990738.4443283-.4443283v-2.347847c0-.2455063-.1989479-.4443283-.4443283-.4443283z"/><path d="m46.534935 100.2102661h-2.347786c-.2453804 0-.4443283.198822-.4443283.4443283v2.347847c0 .2452545.1989479.4443283.4443283.4443283h2.3477859c.2453804 0 .4443245-.1990738.4443245-.4443283v-2.347847c.0000001-.2455063-.198944-.4443283-.4443244-.4443283z"/><path d="m51.4852295 100.2102661h-2.3477859c-.2453804 0-.4443245.198822-.4443245.4443283v2.347847c0 .2452545.1989441.4443283.4443245.4443283h2.3477859c.2453804 0 .4443283-.1990738.4443283-.4443283v-2.347847c0-.2455063-.1989479-.4443283-.4443283-.4443283z"/><path d="m76.2367096 100.2102661h-2.3477783c-.2453842 0-.4443283.198822-.4443283.4443283v2.347847c0 .2452545.1989441.4443283.4443283.4443283h2.3477783c.2453842 0 .4443283-.1990738.4443283-.4443283v-2.347847c0-.2455063-.1989441-.4443283-.4443283-.4443283z"/><path d="m81.1870117 100.2102661h-2.3477859c-.2453842 0-.4443283.198822-.4443283.4443283v2.347847c0 .2452545.1989441.4443283.4443283.4443283h2.3477859c.2453766 0 .4443207-.1990738.4443207-.4443283v-2.347847c0-.2455063-.1989441-.4443283-.4443207-.4443283z"/><path d="m86.1373062 100.2102661h-2.3477859c-.2453766 0-.4443283.198822-.4443283.4443283v2.347847c0 .2452545.1989517.4443283.4443283.4443283h2.3477859c.2453766 0 .4443283-.1990738.4443283-.4443283v-2.347847c0-.2455063-.1989517-.4443283-.4443283-.4443283z"/><path d="m91.0876007 100.2102661h-2.3477859c-.2453766 0-.4443207.198822-.4443207.4443283v2.347847c0 .2452545.1989441.4443283.4443207.4443283h2.3477859c.2453842 0 .4443283-.1990738.4443283-.4443283v-2.347847c0-.2455063-.1989441-.4443283-.4443283-.4443283z"/><path d="m71.2863998 100.2102432-17.1986771.0646133c-.2453384 0-.4442863.1988373-.4442863.4444427v2.3477707c0 .2451782.1989479.4444504.4442863.4444504l17.1986771-.064827c.2453995 0 .4443436-.1990585.4443436-.4442368v-2.3477631c0-.2456129-.1989441-.4444502-.4443436-.4444502z"/><path d="m96.0378876 95.8904114h-2.3477707c-.2453918 0-.4443436.1988373-.4443436.4442291v6.6678162c0 .2451782.1989517.4442368.4443436.4442368h2.3477707c.2453918 0 .4443359-.1990585.4443359-.4442368v-6.6678162c0-.2453918-.1989441-.4442291-.4443359-.4442291z"/><path d="m115.1667328 85.7940598c-.3896713-.6899567-1.1045074-1.1138535-1.8773956-1.1138535h-7.0777664c-.7728882 0-1.4877167.4238968-1.8773956 1.1138535-.8797455 1.5577316-1.4046173 3.5033569-1.4046173 5.6185379 0 5.1162338 2.3546295 10.4482803 6.8208771 10.4482803 4.5808029 0 6.8209152-5.3320465 6.8209152-10.4482803-.0000001-2.115181-.5248719-4.0608063-1.4046174-5.6185379z"/></g><path d="m116.5654297 91.2205124c-.0309601-2.0401382-.5458755-3.9164047-1.3986969-5.4264221-.3896713-.6899948-1.1045074-1.1139297-1.8773956-1.1139297h-7.0777664c-.7728882 0-1.4877243.4239349-1.8773956 1.1139297-.8528214 1.5100174-1.3677368 3.3862839-1.3986969 5.4264221z" fill="#344d5b"/><path d="m109.7504501 85.9860458c-.407547 0-.7379608.3304138-.7379608.7380066v2.4527359c0 .4074326.3304138.7378387.7379608.7378387.4075546 0 .7379684-.3304062.7379684-.7378387v-2.4527359c.0000001-.4075927-.3304137-.7380066-.7379684-.7380066z" fill="#467082"/><path d="m74.6808472 50.5495605c.0128174-1.1728516-.1896973-2.9101562-1.210022-3.6899414-.7299805-.5498047-2.0999756-1.1699219-2.9299316-1.5297852-.0100098 0-.0200195-.0097656-.0300293-.0097656v.0097656c-.0100098 0-.0100098 0-.0100098 0l-.6999512-.8300781v-.8798828c.3999023-.3598633.7299805-.8198242.9699707-1.3500977.0200195.0200195.0400391.050293.0700684.0600586.1999512.0698242.4699707-.2001953.6098633-.6098633.1401367-.4101562.0900879-.7900391-.1098633-.8603516-.0700684-.0195312-.1401367 0-.210083.0400391.0200195-.1499023.0400391-.2998047.0400391-.4599609 0-.0097656 0-.0200195 0-.0200195.1700439-1 .3499756-2.2700195.2999268-3.159668-.0999756-1.6601562-4.4299316-4.2700195-6.9399414-1.1303711 0 0-.7099648.2202148-.8000526 1.300293-.0999756 1.2197266.130127 2.3901367.3501015 3.199707 0 .090332.0200195.1801758.0300293.2700195-.0800781-.0400391-.1501503-.0595703-.2100868-.0400391-.2000732.0703125-.25.4501953-.1099854.8603516.1300049.409668.4099159.6796875.6099892.6098633.0299072-.0097656.039917-.0400391.0699463-.0600586.2299805.5302734.5600586.9799805.9599609 1.3398438v.8901367l-.7099609.8300781v.0102539c-.8299599.3496094-2.199955.9697266-2.9099159 1.5195312-.3500977.2602539-.5900879.6303711-.7700195 1.050293-.3400879.7998047-.4499512 1.7700195-.4499512 2.5498047v.0898438z" fill="#ededed"/></svg>