<svg enable-background="new 0 0 140 140" height="512" viewBox="0 0 140 140" width="512" xmlns="http://www.w3.org/2000/svg"><circle cx="70" cy="70" fill="#4da0dc" r="64"/><path d="m108.148735 36.7881279c-.0900269-.0998535-.1799927-.1899414-.2800293-.2697754l-.0700073-.0600586c-.4500122-.3601074-1.0100098-.5900879-1.6300049-.5900879h-19.4699707l-3.5100098-3.5100098c-.4799805-.4399433-1.1099854-.7199726-1.8099976-.7199726-.1199951 0-.2399902.0100098-.3699951.0300293-.7000122.1000977-1.3200073.4699726-1.7399902 1.0300312-.4200439.5700684-.6000366 1.2700195-.5 1.9599609l.1699829 1.2099609h-15.039978l-3.1700439-3.1699219c-.4199829-.5600586-1.039978-.9299335-1.75-1.0300312-.1199951-.0200195-.2399902-.0300293-.3599854-.0300293-1.3099976 0-2.4500122.9799824-2.6300049 2.2700214l-.2799683 1.9599609h-21.8800048c-1.4400024 0-2.6199951 1.1801758-2.6199951 2.6201172v44.760006c0 .7399902.3200073 1.4099121.8200073 1.8898926l14.5899658 14.5900879-1.210022 8.4699707c-.0999756.6899414.0800171 1.3901367.5 1.9599609.1400146.1801758.3000488.3300781.4700317.4699707l23.3650513 23.365242c.0858765.0002441.1702881.0065918.2562256.0065918 35.3463135 0 63.9999924-28.6538162 63.9999924-64.0000076 0-2.6416016-.178833-5.2397461-.4896851-7.7971153z" opacity=".1"/><g fill="#feda6f"><path d="m79.073555 36.798481-.3056641-2.1396484c-.1005859-.6943359.0771484-1.3896484.5-1.9560547.4248047-.5673828 1.0449219-.9365234 1.7441406-1.0371094.1298828-.0166016.25-.0244141.3681641-.0244141 1.3154297 0 2.4482422.9755859 2.6347656 2.2685547l.4111328 2.8886719z"/><path d="m55.5745316 36.798481.4101562-2.8867188c.1875-1.2958984 1.3203125-2.2705078 2.6357422-2.2705078.1181641 0 .2382812.0078125.3583984.0234375.7070312.1015625 1.3251953.46875 1.75 1.0332031.4248047.5664062.6035156 1.2636719.5039062 1.9619141l-.3056641 2.1386719z"/><path d="m91.96418 111.218399c-1.3017578 0-2.4277344-.9746094-2.6191406-2.2675781l-1.4980469-10.4990234h-35.6933594l-1.4980469 10.4941406c-.1904297 1.296875-1.3164062 2.2724609-2.6191406 2.2724609-.1142578 0-.2412109-.0107422-.3544922-.0244141-.7285156-.1035156-1.3486328-.4726562-1.7724609-1.0400391-.4238281-.5664062-.6015625-1.2617188-.5-1.9580078l3.3505859-23.5449219h5.3535156l-1.2265625 8.6201172h34.2265625l-1.2275391-8.6201172h5.3535156l3.3525391 23.5478516c.0996094.6962891-.0791016 1.3925781-.5039062 1.9589844-.4248047.5654297-1.0429688.9326172-1.7402344 1.0332031-.1455078.0166017-.2705078.0273438-.383789.0273438z"/></g><path d="m106.1680832 85.8666916h-72.3361626c-1.4480476 0-2.6219177-1.1738739-2.6219177-2.6219177v-44.7521592c0-1.4480476 1.1738701-2.6219177 2.6219177-2.6219177h72.3361664c1.4480438 0 2.6219177 1.1738701 2.6219177 2.6219177v44.7521591c-.0000038 1.4480439-1.1738777 2.6219178-2.6219215 2.6219178z" fill="#3a556a"/><path d="m47.588001 24.664698h44.823998v72.407997h-44.823998z" fill="#ededed" transform="matrix(0 1 -1 0 130.869 -9.131)"/><path d="m96.0092087 46.5350151v-.6683273h-3.3434372v-3.5830193h-.6683197v3.5830193h-3.3920135v-3.5830193h-.6683197v3.5830193h-3.3920136v-3.5830193h-.6683807v3.5830193h-3.3920059v-3.5830193h-.6683197v3.5830193h-3.3920135v-3.5830193h-.6683197v3.5830193h-3.392067v-3.5830193h-.6683197v3.5830193h-3.3920135v-3.5830193h-.6683197v3.5830193h-3.392067v-3.5830193h-.6683236v3.5830193h-3.3920059v-3.5830193h-.6683273v3.5830193h-3.3920631v-3.5830193h-.6683235v3.5830193h-3.3920059v-3.5830193h-.6683273v3.5830193h-3.3920059v-3.5830193h-.6683273v3.5830193h-3.3427734v.6683273h3.3427734v3.3920059h-3.3427734v.6683235h3.3427734v3.3920097h-3.3427734v.6683235h3.3427734v3.3920097h-3.3427734v.668541h3.3427734v3.3917885h-3.3427734v.6685448h3.3427734v3.3917885h-3.3427734v.6685486h3.3427734v3.3920059h-3.3427734v.6683273h3.3427734v3.3920059h-3.3427734v.6683197h3.3427734v3.5830231h.6683273v-3.5830231h3.3920059v3.5830231h.6683273v-3.5830231h3.3920059v3.5830231h.6683235v-3.5830231h3.3920631v3.5830231h.6683273v-3.5830231h3.3920059v3.5830231h.6683235v-3.5830231h3.392067v3.5830231h.6683197v-3.5830231h3.3920135v3.5830231h.6683197v-3.5830231h3.392067v3.5830231h.6683197v-3.5830231h3.3920135v3.5830231h.6683197v-3.5830231h3.3920059v3.5830231h.6683807v-3.5830231h3.3920135v3.5830231h.6683197v-3.5830231h3.3920135v3.5830231h.6683197v-3.5830231h3.3434372v-.6683196h-3.3434372v-3.3920059h3.3434372v-.6683273h-3.3434372v-3.3920059h3.3434372v-.6685486h-3.3434372v-3.3917885h3.3434372v-.6685448h-3.3434372v-3.3917885h3.3434372v-.668541h-3.3434372v-3.3920097h3.3434372v-.6683235h-3.3434372v-3.3920097h3.3434372v-.6683236h-3.3434372v-3.3920059zm-8.0720902 0v3.3920059h-3.3920135v-3.3920059zm-23.69384 12.1812134h3.392067v3.3917885h-3.392067zm-.6683235 3.3917885h-3.3920059v-3.3917885h3.3920059zm4.7287102-3.3917885h3.3920135v3.3917885h-3.3920135zm4.0603332 0h3.392067v3.3917885h-3.392067zm4.0603867 0h3.3920135v3.3917885h-3.3920135zm0-.668541v-3.3920097h3.3920135v3.3920097zm-.6683197 0h-3.392067v-3.3920097h3.392067zm-4.0603867 0h-3.3920135v-3.3920097h3.3920135zm-4.0603332 0h-3.392067v-3.3920097h3.392067zm-4.0603905 0h-3.3920059v-3.3920097h3.3920059zm-4.0603333 0h-3.3920631v-3.3920097h3.3920631zm0 .668541v3.3917885h-3.3920631v-3.3917885zm0 4.0603332v3.3917885h-3.3920631v-3.3917885zm.6683274 0h3.3920059v3.3917885h-3.3920059zm4.0603294 0h3.392067v3.3917885h-3.392067zm4.0603867 0h3.3920135v3.3917885h-3.3920135zm4.0603332 0h3.392067v3.3917885h-3.392067zm4.0603867 0h3.3920135v3.3917885h-3.3920135zm4.0603332 0h3.3920059v3.3917885h-3.3920059zm0-.6685447v-3.3917885h3.3920059v3.3917885zm0-4.0603295v-3.3920097h3.3920059v3.3920097zm0-4.0603332v-3.3920097h3.3920059v3.3920097zm-.6683197 0h-3.3920135v-3.3920097h3.3920135zm-4.0603332 0h-3.392067v-3.3920097h3.392067zm-4.0603867 0h-3.3920135v-3.3920097h3.3920135zm-4.0603332 0h-3.392067v-3.3920097h3.392067zm-4.0603905 0h-3.3920059v-3.3920097h3.3920059zm-4.0603333 0h-3.3920631v-3.3920097h3.3920631zm-4.0603866 0h-3.3920059v-3.3920097h3.3920059zm0 .6683235v3.3920097h-3.3920059v-3.3920097zm0 4.0605507v3.3917885h-3.3920059v-3.3917885zm0 4.0603332v3.3917885h-3.3920059v-3.3917885zm0 4.0603371v3.3920059h-3.3920059v-3.3920059zm.6683235 0h3.3920631v3.3920059h-3.3920631zm4.0603905 0h3.3920059v3.3920059h-3.3920059zm4.0603294 0h3.392067v3.3920059h-3.392067zm4.0603867 0h3.3920135v3.3920059h-3.3920135zm4.0603332 0h3.392067v3.3920059h-3.392067zm4.0603867 0h3.3920135v3.3920059h-3.3920135zm4.0603332 0h3.3920059v3.3920059h-3.3920059zm4.0603867 0h3.3920135v3.3920059h-3.3920135zm0-.6685486v-3.3917885h3.3920135v3.3917885zm0-4.0603332v-3.3917885h3.3920135v3.3917885zm0-4.0603295v-3.3920097h3.3920135v3.3920097zm0-4.0603332v-3.3920097h3.3920135v3.3920097zm-.6683808-7.4523392v3.3920059h-3.3920059v-3.3920059zm-4.0603256 0v3.3920059h-3.3920135v-3.3920059zm-4.0603332 0v3.3920059h-3.392067v-3.3920059zm-4.0603867 0v3.3920059h-3.3920135v-3.3920059zm-4.0603332 0v3.3920059h-3.392067v-3.3920059zm-4.0603905 0v3.3920059h-3.3920059v-3.3920059zm-4.0603333 0v3.3920059h-3.3920631v-3.3920059zm-4.0603866 0v3.3920059h-3.3920059v-3.3920059zm-7.4523392 0h3.3920059v3.3920059h-3.3920059zm0 4.0603294h3.3920059v3.3920097h-3.3920059zm0 4.0603333h3.3920059v3.3920097h-3.3920059zm0 4.0605507h3.3920059v3.3917885h-3.3920059zm0 4.0603332h3.3920059v3.3917885h-3.3920059zm0 4.0603371h3.3920059v3.3920059h-3.3920059zm0 7.4523392v-3.3920059h3.3920059v3.3920059zm4.0603333 0v-3.3920059h3.3920059v3.3920059zm4.0603294 0v-3.3920059h3.3920631v3.3920059zm4.0603905 0v-3.3920059h3.3920059v3.3920059zm4.0603294 0v-3.3920059h3.392067v3.3920059zm4.0603867 0v-3.3920059h3.3920135v3.3920059zm4.0603332 0v-3.3920059h3.392067v3.3920059zm4.0603867 0v-3.3920059h3.3920135v3.3920059zm4.0603332 0v-3.3920059h3.3920059v3.3920059zm4.0603867 0v-3.3920059h3.3920135v3.3920059zm7.4523468 0h-3.3920135v-3.3920059h3.3920135zm0-4.0603333h-3.3920135v-3.3920059h3.3920135zm0-4.0605545h-3.3920135v-3.3917885h3.3920135zm0-4.0603332h-3.3920135v-3.3917885h3.3920135zm0-4.0603295h-3.3920135v-3.3920097h3.3920135zm0-4.0603332h-3.3920135v-3.3920097h3.3920135zm0-4.0603333h-3.3920135v-3.3920059h3.3920135z" fill="#dbd8dd"/><path d="m47.3335686 66.8368988v-4.7288818l8.1206665-4.0603295 6.7230415-1.6960067 4.1754685.7165908 4.7298355-.7165908 7.6578445-3.7511178 7.5006867-.989479 6.4246673-4.2052841v22.0158996l-18.605751 3.1715317-20.301796-2.676796z" fill="#4da0dc"/><path d="m87.9371414 54.6556587-12.1810913 4.0605469-8.1272201 5.1153336-7.4459-1.7234879-12.8655548 4.0603065v8.7893067h45.3484039v-25.0307655z" fill="#dd584d"/></svg>