<?xml version="1.0" encoding="iso-8859-1"?>
<!-- Generator: Adobe Illustrator 19.0.0, SVG Export Plug-In . SVG Version: 6.00 Build 0)  -->
<svg version="1.1" id="Capa_1" xmlns="http://www.w3.org/2000/svg" xmlns:xlink="http://www.w3.org/1999/xlink" x="0px" y="0px"
	 viewBox="0 0 436.907 436.907" style="enable-background:new 0 0 436.907 436.907;" xml:space="preserve">
<circle style="fill:#EA8953;" cx="218.453" cy="218.453" r="218.453"/>
<path style="opacity:0.1;enable-background:new    ;" d="M345.287,92.382l-0.08-0.08l-0.016,0.015
	c-0.688-0.632-1.588-1.041-2.595-1.041H321.34c-6.965-1.162-13.929-0.945-20.894,0h-70.104c-6.965-0.945-13.929-1.162-20.894,0
	h-21.255c-2.13,0-3.858,1.727-3.858,3.857v45.336H96.912c-3.567,0-6.458,2.892-6.458,6.458v135.623v16.315
	c0,1.665,0.623,3.17,1.616,4.352l-0.012,0.005l0.094,0.094c0.202,0.232,0.417,0.446,0.648,0.648l132.76,132.761
	c117.352-3.76,211.346-100.009,211.346-218.274c0-12.89-1.18-25.496-3.322-37.773l-88.237-88.237
	C345.328,92.423,345.308,92.403,345.287,92.382z"/>
<path style="fill:#E1E6E9;" d="M304.254,140.47H96.912c-3.567,0-6.458,2.891-6.458,6.458v135.622v16.315
	c0,3.754,3.044,6.798,6.798,6.798h206.663c3.755,0,6.798-3.044,6.798-6.798v-16.315V146.929
	C310.712,143.362,307.821,140.47,304.254,140.47z"/>
<path style="fill:#2F4859;" d="M237.748,332.177h-78.169c-2.377,0-4.304,1.927-4.304,4.304v9.972h86.778v-9.972
	C242.052,334.104,240.125,332.177,237.748,332.177z"/>
<circle style="fill:#64798A;" cx="200.581" cy="290.816" r="8.605"/>
<rect x="98.884" y="147.285" style="fill:#2D93BA;" width="203.401" height="128.485"/>
<polygon style="fill:#27A2DB;" points="98.884,275.753 98.884,147.269 302.281,147.269 "/>
<polygon style="fill:#64798A;" points="227.824,332.177 169.502,332.177 163.29,305.665 234.036,305.665 "/>
<polygon style="fill:#3A556A;" points="234.036,305.665 163.29,305.665 164.765,311.96 232.561,311.96 "/>
<path style="fill:#2F4859;" d="M342.596,91.277H188.194c-2.131,0-3.858,1.727-3.858,3.857v104.486c0,2.131,1.727,3.857,3.858,3.857
	h66.11c1.813,4.339,6.094,7.39,11.091,7.39s9.278-3.051,11.092-7.39h66.11c2.13,0,3.857-1.727,3.857-3.857V95.135
	C346.453,93.004,344.726,91.277,342.596,91.277z"/>
<rect x="265.387" y="98.581" style="fill:#E1E6E9;" width="73.281" height="97.198"/>
<g>
	<rect x="192.102" y="98.581" style="fill:#EBF0F3;" width="73.281" height="97.198"/>
	<path style="fill:#EBF0F3;" d="M265.395,98.715v96.007c22.227-4.369,44.456-13.369,66.683-4.483V94.232
		C309.851,85.346,287.622,94.346,265.395,98.715z"/>
</g>
<g>
	<path style="fill:#E1E6E9;" d="M271.202,112.082l-0.384-1.958c3.77-0.742,7.611-1.662,11.329-2.553
		c14.543-3.474,29.583-7.078,44.507-1.109l-0.742,1.854c-14.341-5.731-29.06-2.205-43.3,1.2
		C278.879,110.41,275.014,111.334,271.202,112.082z"/>
	<path style="fill:#E1E6E9;" d="M271.202,123.014l-0.384-1.958c3.767-0.742,7.605-1.662,11.319-2.55
		c14.546-3.484,29.583-7.084,44.517-1.116l-0.742,1.854c-14.338-5.728-29.066-2.202-43.31,1.203
		C278.869,121.343,275.008,122.266,271.202,123.014z"/>
	<path style="fill:#E1E6E9;" d="M271.202,133.947l-0.384-1.958c3.767-0.742,7.605-1.662,11.319-2.55
		c14.546-3.48,29.583-7.081,44.517-1.116l-0.742,1.854c-14.338-5.722-29.066-2.205-43.31,1.204
		C278.869,132.275,275.008,133.199,271.202,133.947z"/>
	<path style="fill:#E1E6E9;" d="M271.202,144.876l-0.384-1.958c3.77-0.742,7.611-1.662,11.329-2.553
		c14.543-3.477,29.583-7.075,44.507-1.109l-0.742,1.854c-14.341-5.728-29.06-2.209-43.3,1.2
		C278.879,143.204,275.014,144.128,271.202,144.876z"/>
	<path style="fill:#E1E6E9;" d="M271.202,155.808l-0.384-1.958c3.77-0.742,7.611-1.662,11.329-2.553
		c14.543-3.477,29.583-7.075,44.507-1.109l-0.742,1.854c-14.341-5.728-29.06-2.205-43.3,1.2
		C278.879,154.136,275.014,155.06,271.202,155.808z"/>
	<path style="fill:#E1E6E9;" d="M271.202,166.741l-0.384-1.958c3.767-0.742,7.605-1.662,11.319-2.55
		c14.546-3.484,29.583-7.078,44.517-1.116l-0.742,1.854c-14.338-5.722-29.066-2.205-43.31,1.204
		C278.869,165.069,275.008,165.993,271.202,166.741z"/>
	<path style="fill:#E1E6E9;" d="M271.202,177.673l-0.384-1.958c3.767-0.742,7.605-1.662,11.319-2.55
		c14.546-3.48,29.583-7.084,44.517-1.116l-0.742,1.854c-14.338-5.722-29.066-2.199-43.31,1.204
		C278.869,176.001,275.008,176.925,271.202,177.673z"/>
	<path style="fill:#E1E6E9;" d="M265.395,98.715v96.007c-22.227-4.369-44.456-13.369-66.683-4.483V94.232
		C220.939,85.346,243.168,94.346,265.395,98.715z"/>
</g>
<g>
	<path style="fill:#D5D6DB;" d="M259.588,112.082l0.384-1.958c-3.77-0.742-7.611-1.662-11.329-2.553
		c-14.543-3.474-29.583-7.078-44.507-1.109l0.742,1.854c14.341-5.731,29.06-2.205,43.3,1.2
		C251.911,110.41,255.775,111.334,259.588,112.082z"/>
	<path style="fill:#D5D6DB;" d="M259.588,123.014l0.384-1.958c-3.767-0.742-7.605-1.662-11.319-2.55
		c-14.546-3.484-29.583-7.084-44.517-1.116l0.742,1.854c14.338-5.728,29.066-2.202,43.31,1.203
		C251.921,121.343,255.782,122.266,259.588,123.014z"/>
	<path style="fill:#D5D6DB;" d="M259.588,133.947l0.384-1.958c-3.767-0.742-7.605-1.662-11.319-2.55
		c-14.546-3.48-29.583-7.081-44.517-1.116l0.742,1.854c14.338-5.722,29.066-2.205,43.31,1.204
		C251.921,132.275,255.782,133.199,259.588,133.947z"/>
	<path style="fill:#D5D6DB;" d="M259.588,144.876l0.384-1.958c-3.77-0.742-7.611-1.662-11.329-2.553
		c-14.543-3.477-29.583-7.075-44.507-1.109l0.742,1.854c14.341-5.728,29.06-2.209,43.3,1.2
		C251.911,143.204,255.775,144.128,259.588,144.876z"/>
	<path style="fill:#D5D6DB;" d="M259.588,155.808l0.384-1.958c-3.77-0.742-7.611-1.662-11.329-2.553
		c-14.543-3.477-29.583-7.075-44.507-1.109l0.742,1.854c14.341-5.728,29.06-2.205,43.3,1.2
		C251.911,154.136,255.775,155.06,259.588,155.808z"/>
	<path style="fill:#D5D6DB;" d="M259.588,166.741l0.384-1.958c-3.767-0.742-7.605-1.662-11.319-2.55
		c-14.546-3.484-29.583-7.078-44.517-1.116l0.742,1.854c14.338-5.722,29.066-2.205,43.31,1.204
		C251.921,165.069,255.782,165.993,259.588,166.741z"/>
	<path style="fill:#D5D6DB;" d="M259.588,177.673l0.384-1.958c-3.767-0.742-7.605-1.662-11.319-2.55
		c-14.546-3.48-29.583-7.084-44.517-1.116l0.742,1.854c14.338-5.722,29.066-2.199,43.31,1.204
		C251.921,176.001,255.782,176.925,259.588,177.673z"/>
</g>
<g>
</g>
<g>
</g>
<g>
</g>
<g>
</g>
<g>
</g>
<g>
</g>
<g>
</g>
<g>
</g>
<g>
</g>
<g>
</g>
<g>
</g>
<g>
</g>
<g>
</g>
<g>
</g>
<g>
</g>
</svg>
