<svg enable-background="new 0 0 140 140" height="512" viewBox="0 0 140 140" width="512" xmlns="http://www.w3.org/2000/svg"><circle cx="70" cy="70" fill="#4da0dc" r="64"/><path d="m98.7306747 31.5590649c-.5-.8300781-1.4100342-1.4001465-2.460022-1.4001465h-52.539978c-1.5900269 0-2.8900146 1.3000488-2.8900146 2.8901348v73.8999023c0 .75.2999878 1.4299316.7700195 1.9499512h-.0100098l.0499878.0500488c.0300293.0300293.0599976.0600586.0900269.0800781l24.876709 24.8808594c1.1203613.0583496 2.2477417.0900879 3.3826294.0900879 35.3463135 0 63.9999924-28.6538086 63.9999924-64 0-1.0913086-.0283203-2.1760254-.0822754-3.2539062z" opacity=".1"/><path d="m40.8439598 33.0498276v73.9003448c0 1.5942993 1.2924347 2.8867416 2.8867416 2.8867416h52.5385551c1.5942993 0 2.8867416-1.2924347 2.8867416-2.8867416v-73.9003448c0-1.5943031-1.2924347-2.8867416-2.8867416-2.8867416h-52.5385551c-1.5943031-.0000001-2.8867416 1.2924384-2.8867416 2.8867416z" fill="#64798a"/><path d="m44.308197 33.627167h51.383564v21.650497h-51.383564z" fill="#ededed"/><path d="m95.6947708 63.8359451v.0000114c0 2.5110207-2.0355835 4.5465965-4.5466003 4.5465965h-1.3423233c-2.5110245 0-4.5466003-2.0355759-4.5466003-4.5465965v-.0000114c0-2.5110168 2.0355759-4.5465965 4.5466003-4.5465965h1.3423233c2.5110168 0 4.5466003 2.0355797 4.5466003 4.5465965z" fill="#dbd8dd"/><path d="m76.1573639 59.2893486h1.3337097c2.5110168 0 4.5466003 2.0355797 4.5466003 4.5465965v.0000114c0 2.5110207-2.0355835 4.5465965-4.5466003 4.5465965h-1.3337097c-2.5110168 0-4.5466003-2.0355759-4.5466003-4.5465965v-.0000114c-.0000001-2.5110168 2.0355834-4.5465965 4.5466003-4.5465965z" fill="#4da0dc"/><path d="m48.8517838 59.2893486h1.3423271c2.5110207 0 4.5466003 2.0355797 4.5466003 4.5465965v.0000114c0 2.5110207-2.0355797 4.5465965-4.5466003 4.5465965h-1.3423271c-2.5110168 0-4.5466003-2.0355835-4.5466003-4.5465965v-.0000114c-.0000001-2.5110168 2.0355834-4.5465965 4.5466003-4.5465965z" fill="#4abba4"/><path d="m62.5088806 59.2893486h1.3337135c2.5110207 0 4.5465965 2.0355797 4.5465965 4.5465965v.0000114c0 2.5110207-2.0355759 4.5465965-4.5465965 4.5465965h-1.3337135c-2.5110168 0-4.5466003-2.0355759-4.5466003-4.5465965v-.0000114c0-2.5110168 2.0355835-4.5465965 4.5466003-4.5465965z" fill="#feda6f"/><g fill="#3a556a"><path d="m95.6947708 76.1809616v.0000076c0 2.5110168-2.0355835 4.5466003-4.5466003 4.5466003h-1.3423233c-2.5110245 0-4.5466003-2.0355835-4.5466003-4.5466003v-.0000076c0-2.5110168 2.0355759-4.5466003 4.5466003-4.5466003h1.3423233c2.5110168 0 4.5466003 2.0355835 4.5466003 4.5466003z"/><path d="m76.1573639 71.6343613h1.3337097c2.5110168 0 4.5466003 2.0355759 4.5466003 4.5466003v.0000076c0 2.5110168-2.0355835 4.5466003-4.5466003 4.5466003h-1.3337097c-2.5110168 0-4.5466003-2.0355835-4.5466003-4.5466003v-.0000076c-.0000001-2.5110245 2.0355834-4.5466003 4.5466003-4.5466003z"/><path d="m48.8517838 71.6343613h1.3423271c2.5110207 0 4.5466003 2.0355759 4.5466003 4.5466003v.0000076c0 2.5110168-2.0355797 4.5466003-4.5466003 4.5466003h-1.3423271c-2.5110168 0-4.5466003-2.0355835-4.5466003-4.5466003v-.0000076c-.0000001-2.5110245 2.0355834-4.5466003 4.5466003-4.5466003z"/><path d="m62.5088806 71.6343613h1.3337135c2.5110207 0 4.5465965 2.0355759 4.5465965 4.5466003v.0000076c0 2.5110168-2.0355759 4.5466003-4.5465965 4.5466003h-1.3337135c-2.5110168 0-4.5466003-2.0355835-4.5466003-4.5466003v-.0000076c0-2.5110245 2.0355835-4.5466003 4.5466003-4.5466003z"/><path d="m95.6947708 88.5259705v.0000076c0 2.5110168-2.0355835 4.5466003-4.5466003 4.5466003h-1.3423233c-2.5110245 0-4.5466003-2.0355835-4.5466003-4.5466003v-.0000076c0-2.5110168 2.0355759-4.5466003 4.5466003-4.5466003h1.3423233c2.5110168-.0000001 4.5466003 2.0355834 4.5466003 4.5466003z"/><path d="m76.1573639 83.9793701h1.3337097c2.5110168 0 4.5466003 2.0355835 4.5466003 4.5466003v.0000076c0 2.5110168-2.0355835 4.5466003-4.5466003 4.5466003h-1.3337097c-2.5110168 0-4.5466003-2.0355835-4.5466003-4.5466003v-.0000076c-.0000001-2.5110168 2.0355834-4.5466003 4.5466003-4.5466003z"/><path d="m48.8517838 83.9793701h1.3423271c2.5110207 0 4.5466003 2.0355835 4.5466003 4.5466003v.0000076c0 2.5110168-2.0355797 4.5466003-4.5466003 4.5466003h-1.3423271c-2.5110168 0-4.5466003-2.0355835-4.5466003-4.5466003v-.0000076c-.0000001-2.5110168 2.0355834-4.5466003 4.5466003-4.5466003z"/><path d="m62.5088806 83.9793701h1.3337135c2.5110207 0 4.5465965 2.0355835 4.5465965 4.5466003v.0000076c0 2.5110168-2.0355759 4.5466003-4.5465965 4.5466003h-1.3337135c-2.5110168 0-4.5466003-2.0355835-4.5466003-4.5466003v-.0000076c0-2.5110168 2.0355835-4.5466003 4.5466003-4.5466003z"/></g><path d="m95.6947708 100.8709793v.0000153c0 2.5110168-2.0355835 4.5466003-4.5466003 4.5466003h-1.3423233c-2.5110245 0-4.5466003-2.0355835-4.5466003-4.5466003v-.0000153c0-2.5110168 2.0355759-4.5466003 4.5466003-4.5466003h1.3423233c2.5110168 0 4.5466003 2.0355835 4.5466003 4.5466003z" fill="#dd584d"/><g fill="#3a556a"><path d="m76.1573639 96.324379h1.3337097c2.5110168 0 4.5466003 2.0355835 4.5466003 4.5466003v.0000153c0 2.5110168-2.0355835 4.5465927-4.5466003 4.5465927h-1.3337097c-2.5110168 0-4.5466003-2.0355759-4.5466003-4.5465927v-.0000153c-.0000001-2.5110168 2.0355834-4.5466003 4.5466003-4.5466003z"/><path d="m48.8517838 96.324379h1.3423271c2.5110207 0 4.5466003 2.0355835 4.5466003 4.5466003v.0000153c0 2.5110168-2.0355797 4.5465927-4.5466003 4.5465927h-1.3423271c-2.5110168 0-4.5466003-2.0355759-4.5466003-4.5465927v-.0000153c-.0000001-2.5110168 2.0355834-4.5466003 4.5466003-4.5466003z"/><path d="m62.5088806 96.324379h1.3337135c2.5110207 0 4.5465965 2.0355835 4.5465965 4.5466003v.0000153c0 2.5110168-2.0355759 4.5465927-4.5465965 4.5465927h-1.3337135c-2.5110168 0-4.5466003-2.0355759-4.5466003-4.5465927v-.0000153c0-2.5110168 2.0355835-4.5466003 4.5466003-4.5466003z"/></g><path d="m45.043972 37.093704h6.22579v1.732196h-6.22579z" fill="#fff" transform="matrix(.677 -.736 .736 .677 -12.379 47.729)"/><path d="m46.148357 39.890087h10.104111v1.732196h-10.104111z" fill="#fff" transform="matrix(.677 -.736 .736 .677 -13.454 50.874)"/><path d="m79.7426987 49.6190414c0-.6996727.4731293-1.1912918 1.1358109-1.1912918.6626892 0 1.1165466.4916191 1.1165466 1.1912918 0 .6811752-.4353638 1.1928329-1.1358109 1.1928329-.661911.0000001-1.1165466-.5116576-1.1165466-1.1928329z" fill="#293b44"/><path d="m91.7064667 44.3206482c0 4.1826172-1.5519104 6.4912262-4.2773972 6.4912262-2.403389 0-4.0315857-2.2515869-4.0693436-6.321701 0-4.1255989 1.7792282-6.3972168 4.2773972-6.3972168 2.5929413-.0000001 4.0693436 2.3086051 4.0693436 6.2276916zm-6.6807862.188015c0 3.199379.9840088 5.0163689 2.4981689 5.0163689 1.7037125 0 2.5174332-1.9880524 2.5174332-5.1288681 0-3.0283165-.7759628-5.0163689-2.4981689-5.0163689-1.4579086 0-2.5174332 1.7800026-2.5174332 5.1288681z" fill="#293b44"/></svg>