<svg enable-background="new 0 0 140 140" height="512" viewBox="0 0 140 140" width="512" xmlns="http://www.w3.org/2000/svg"><circle cx="70" cy="70" fill="#dc594e" r="64"/><path d="m50.710022 70.0100098c0-.5700684-.0700073-1.1101074-.1900024-1.6101074l-9.5200196-9.5198975v-.0100098c-2.3900146-1.9400635-4.289978-4.1700439-4.289978-7.4100342v-9.9599609l-3.2900391-3.2900391h.0100098c-.8200073-.75-1.3399658-1.8199463-1.3399658-3.0100098 0-2.2600098 1.8299561-4.0999756 4.0899658-4.0999756h39.6199951c.9700317 0 1.8500366.3499756 2.5499878.9200439l.0300293-.0200194.2000122.2099609c.0799561.0700684.1399536.1300049.2099609.2099609l41.8000488 41.7900391c.0699463.0700684.1399536.1400146.2099609.2099609l11.2600098 11.2600098c-6.9999999 27.7600098-32.1199951 48.3200684-62.0599975 48.3200684-3.9000244 0-7.7199707-.3699951-11.4299927-1.0400391l-24.9500122-24.9399414h.039978c-.9499512-.75-1.5699463-1.9000244-1.5699463-3.1999512 0-2.2600098 1.8299561-4.1000977 4.0899658-4.1000977h.5300293v-12.1699218c.0000001-8.8100586 14.0000001-10.1401367 14.0000001-18.540039z" opacity=".1"/><path d="m61.2814636 70.0075455c0 8.4044037 14.0016785 9.7349243 14.0016785 18.5456009v15.4244919h-38.5705452v-15.4244919c0-8.8106766 14.0015984-10.1448746 14.0015984-18.5456009s-14.0015984-9.734932-14.0015984-18.5456085v-15.2583428h38.5705452v15.2583428c0 8.8106765-14.0016785 10.1411972-14.0016785 18.5456085z" fill="#e6e7e8"/><path d="m42.7125435 94.718689v-6.1660156c0-1.2636719 1.8208008-2.6503906 4.5986328-4.6220703 3.0942383-2.1962891 7.0810547-5.0263672 8.6865234-9.6035156 1.6049805 4.5800781 5.5927734 7.4091797 8.6884804 9.6064453 2.7768555 1.9697266 4.597168 3.3564453 4.597168 4.6191406v6.1660156z" fill="#d6b251"/><path d="m42.7125435 51.461853c0 1.2636719 1.8208008 2.6503906 4.5981445 4.6220703 3.0947266 2.1962891 7.081543 5.0263672 8.6870117 9.6044922 1.6049805-4.5800781 5.5927734-7.4101562 8.6884804-9.6064453 2.7768555-1.9707031 4.597168-3.3564453 4.597168-4.6201172z" fill="#d6b251"/><path d="m75.8025894 31.1039505h-39.620163c-2.2613602 0-4.0946198 1.8333397-4.0946198 4.0946236 0 2.2616043 1.8332596 4.094944 4.0946198 4.094944h39.620163c2.2613602 0 4.0946198-1.8333397 4.0946198-4.094944 0-2.2612839-1.8332596-4.0946236-4.0946198-4.0946236z" fill="#344e5c"/><path d="m75.8025894 100.7238235h-39.620163c-2.2613602 0-4.0946198 1.8333435-4.0946198 4.0946274 0 2.2612762 1.8332596 4.0946198 4.0946198 4.0946198h39.620163c2.2613602 0 4.0946198-1.8333435 4.0946198-4.0946198 0-2.2612838-1.8332596-4.0946274-4.0946198-4.0946274z" fill="#344e5c"/><path d="m82.077164 58.575134h5.636483v6.986496h-5.636483z" fill="#3e6472"/><path d="m91.1937485 53.857605h-12.5966797c-1.0183716 0-1.8439331.8254395-1.8439331 1.8439941v1.9484863c0 1.0183105.8255615 1.8439941 1.8439331 1.8439941h12.5966797c1.0184326 0 1.8439941-.8256836 1.8439941-1.8439941v-1.9484863c0-1.0185547-.8255615-1.8439941-1.8439941-1.8439941z" fill="#467080"/><circle cx="84.895" cy="85.896" fill="#467080" r="23.017"/><path d="m84.8956528 104.9130249c-10.4858398 0-19.0170898-8.53125-19.0170898-19.0166016s8.53125-19.0166016 19.0170898-19.0166016 19.0166016 8.53125 19.0166016 19.0166016-8.5307618 19.0166016-19.0166016 19.0166016z" fill="#ececec"/><g fill="#e7a04e"><path d="m84.8954163 70.2174225c-.5895081 0-1.0691223-.4796219-1.0691223-1.0690994 0-.5894852.4796143-1.0691071 1.0691223-1.0691071s1.0691071.4796219 1.0691071 1.0691071c-.0000001.5894775-.4795991 1.0690994-1.0691071 1.0690994z"/><path d="m84.8954163 103.7136307c-.5895081 0-1.0691223-.4796219-1.0691223-1.0690994s.4796143-1.0690994 1.0691223-1.0690994 1.0691071.4796219 1.0691071 1.0690994-.4795991 1.0690994-1.0691071 1.0690994z"/><path d="m77.0559158 72.3180008c-.5105286.294754-1.1657028.1192017-1.4604416-.391304s-.1191864-1.1656799.3913422-1.460434 1.1656799-.1191864 1.4604187.3913193.1192093 1.1656647-.3913193 1.4604187z"/><path d="m93.8040237 101.3265686c-.5105286.294754-1.1657028.1192017-1.4604492-.391304-.2947388-.510498-.1191864-1.1656799.3913422-1.4604263.5105286-.294754 1.1656799-.1191864 1.4604187.3913116.2947464.5105057.1192169 1.1656723-.3913117 1.4604187z"/><path d="m71.3169937 78.0569077c-.294754.5105286-.9499283.6860886-1.460434.3913422-.510498-.2947388-.686058-.949913-.391304-1.4604416s.9499207-.686058 1.4604187-.3913193c.5105057.2947464.6860733.9498901.3913193 1.4604187z"/><path d="m100.3255692 94.8050156c-.294754.5105286-.9499283.6860809-1.460434.3913422s-.686058-.949913-.391304-1.4604416.949913-.686058 1.4604187-.3913193.6860733.9498901.3913193 1.4604187z"/><path d="m69.2164001 85.8964081c0 .5895081-.4796219 1.0691299-1.0690994 1.0691299s-1.0690994-.4796219-1.0690994-1.0691299c0-.5895004.4796219-1.0690994 1.0690994-1.0690994s1.0690994.479599 1.0690994 1.0690994z"/><path d="m102.712616 85.8964081c0 .5895081-.4796219 1.0691299-1.0691071 1.0691299-.5894775 0-1.0690994-.4796219-1.0690994-1.0691299 0-.5895004.4796219-1.0690994 1.0690994-1.0690994.5894852 0 1.0691071.479599 1.0691071 1.0690994z"/><path d="m71.3169861 93.7359161c.2947464.5105286.119194 1.1657028-.3913116 1.4604416-.510498.2947388-1.1656723.1191864-1.4604263-.3913422s-.1191864-1.1656799.3913116-1.4604187c.5105056-.2947387 1.1656723-.1192092 1.4604263.3913193z"/><path d="m100.3255539 76.9878082c.294754.5105286.1192017 1.1657028-.391304 1.4604416-.5105057.2947464-1.1656799.1191864-1.460434-.3913422s-.1191864-1.1656723.3913193-1.4604187c.5105057-.2947387 1.1656647-.1192092 1.4604187.3913193z"/><path d="m77.0558929 99.4748383c.5105286.2947464.6860809.9499283.3913422 1.4604263-.2947388.5105057-.949913.686058-1.4604416.391304-.5105286-.2947464-.686058-.949913-.3913193-1.4604187.2947388-.510498.9498902-.6860657 1.4604187-.3913116z"/><path d="m93.8039932 70.4662628c.5105286.294754.6860886.9499283.3913422 1.460434-.2947388.5105057-.949913.686058-1.4604416.391304s-.686058-.949913-.3913193-1.4604187c.2947464-.5105057.9498978-.6860733 1.4604187-.3913193z"/></g><path d="m94.8697739 86.6464233h-9.9741211c-.4140625 0-.75-.3359375-.75-.75v-12.7783203c0-.4140625.3359375-.75.75-.75s.75.3359375.75.75v12.0283203h9.2241211c.4140625 0 .75.3359375.75.75s-.3359375.75-.75.75z" fill="#32796b"/><path d="m84.8954544 89.5630722c-2.0218048 0-3.6667404-1.6449356-3.6667404-3.6666489 0-2.0217056 1.6449356-3.6666412 3.6667404-3.6666412s3.6666412 1.6449356 3.6666412 3.6666412c0 2.0217133-1.6448364 3.6666489-3.6666412 3.6666489z" fill="#48b19a"/><path d="m84.8954315 87.9511642c-1.132988 0-2.0547867-.9217987-2.0547867-2.0547409 0-1.1329346.9217987-2.0547333 2.0547867-2.0547333s2.0547333.9217987 2.0547333 2.0547333c0 1.1329422-.9217453 2.0547409-2.0547333 2.0547409z" fill="#e6e7e8"/></svg>