<svg enable-background="new 0 0 140 140" height="512" viewBox="0 0 140 140" width="512" xmlns="http://www.w3.org/2000/svg"><circle cx="70" cy="70" fill="#de594e" r="64"/><path d="m78.0147781 27.7612839c-3.3699951.1999512-10.7199707-4.2900391-12.8699951-1.6899414-1.5299644 1.8598633 2.8400269 8.0598145 4.4199829 10.1599121h-.5799561c-.460022 0-.8300171.369873-.8300171.829834s.3699951.8300781.8300171.8300781h.4299927c-3.6000366 4.9599609-19.9899864 28.3901367-15.4700279 37.3200684-2.0100098-.1398926-4.0299683.2800293-5.8200073 1.2399902l-9.4899902 5.0800781 8.5200195 17.3198242-8.710022-17.6899414c-.3499756-.6899414-1.1900024-.9699707-1.8800049-.6201172l-6.2799683 3.2602539c-.6699829.3398438-.9400024 1.1599121-.6099854 1.829834l9.8999634 20.1101074c.1400146.2797852.3599854.4799805.6099854.6098633l27.5925255 27.5925369c.7393188.0253906 1.4772949.0563965 2.2227173.0563965 34.0838623 0 61.9347-26.646492 63.8814163-60.2421951l-47.6866531-47.6865234c-1.3899536-1.4802246-6.1499634 1.5598144-8.1799927 1.6899414z" opacity=".1"/><path d="m81.2309723 36.9476089h-11.122673s-22.2739906 29.6283951-15.7739792 38.9612122c6.0967331 8.7537689 36.5738907 8.7537689 42.6706314 0 6.5000076-9.3328171-15.7739792-38.9612122-15.7739792-38.9612122z" fill="#ededed"/><path d="m86.1902542 26.0738144c-1.3819122-1.4837799-6.1489182 1.5611191-8.1728516 1.6836948-3.3704376.2041512-10.7255096-4.2892036-12.8731537-1.6836948-1.8543053 2.2495575 4.9640427 10.8737907 4.9640427 10.8737907h11.1226654s6.9461747-8.7404556 4.9592972-10.8737907z" fill="#dbd8dd"/><circle cx="75.67" cy="64.886" fill="#fcd462" r="10.25"/><circle cx="75.67" cy="64.886" fill="#f7be56" r="8.441"/><path d="m63.8334427 59.4693489c-.1867828.9198647-.3643341 1.8000832-.4833527 2.6820831-.112072.8814926-.1883125 1.7577324-.1844978 2.6363411-.0159683.878273.0469284 1.7553635.1456566 2.6382904.1057625.8833542.2687416 1.7662048.440155 2.6894608-1.1250343-1.5089417-1.6331253-3.440918-1.6260948-5.335968.0242271-1.8948746.5616722-3.817791 1.7081337-5.3102074z" fill="#dbd8dd"/><path d="m110.7832794 83.7652512c0 1.3745651-.6990891 2.6797256-1.8876114 3.4256058l-26.8693466 17.6907272c-1.7944489 1.1418686-4.0083466 1.4212189-6.0357742.7922516l-22.5815048-7.1541748-5.3598747 2.1437759-8.6037407-9.1033936-.8111343-10.0290298 9.4874916-5.0782013c2.1982498-1.1766205 4.7363586-1.5549698 7.1822014-1.0706482l24.5782776 4.8670197c2.1207352.3729401 3.5888901 2.353714 3.3092575 4.4974976-.2564545 2.02771-1.9809189 3.5189133-3.9850235 3.5189133-.1398163 0-.2563095 0-.3961258-.0233307l-12.2644425-1.2158128c-.8576584-.085022-1.6014175.5886536-1.6014175 1.4505157v.0000076c0 .7617722.586586 1.3950806 1.3461304 1.4533539l15.3627396 1.1785583 23.6068802-10.8625488c2.3537216-1.0955048 5.0802383.3726578 5.4765091 2.9363174.0233229.1860429.0465086.395981.0465086.582596z" fill="#fcd462"/><path d="m48.338047 101.2471771-9.89748-20.0854111c-.341507-.6929703-1.1852493-.9706192-1.871254-.615593l-6.2885303 3.253212c-.6672287.3450699-.935627 1.1606445-.6037922 1.8342743l9.895916 20.1030502c.3417931.6941071 1.1875267.9717484 1.8740997.6147385l6.2900963-3.2708511c.6655197-.3462066.9324989-1.1606445.6009445-1.8334198z" fill="#3a556a"/><circle cx="42.814" cy="101.367" fill="#ebf0f3" r="2.063"/><path d="m75.3393555 71.0821609v-1.238533c-.6192627-.07798-1.1227036-.2167435-1.5103149-.4162827-.387619-.1995392-.7224808-.5217896-1.0045929-.9667435s-.4460983-.988533-.4919739-1.6307373l1.2454147-.2339401c.0963287.6651382.2660599 1.1536713.5091782 1.4655914.3486252.4403687.7660522.6857834 1.2522888.7362442v-3.9426651c-.5091705-.0963287-1.0298157-.2935791-1.5619278-.5917435-.3944931-.2201843-.6983948-.5252304-.9116974-.9151382s-.3199539-.8325691-.3199539-1.32798c0-.8807373.3119278-1.5940399.9357834-2.1399117.4174347-.3669701 1.0366974-.5917435 1.8577957-.6743126v-.5917435h.7293625v.5917435c.7201843.0688095 1.2912827.2798195 1.7133026.6330299.5412827.4495392.8669739 1.0665131.977066 1.8509178l-1.2798157.1926613c-.0733948-.4862404-.2259216-.8589478-.4575729-1.1181221s-.5493088-.4300461-.95298-.5126152v3.571106c.6238556.1559601 1.0366974.277523 1.238533.3646812.3853226.1697235.6995392.3761444.9426575.6192627s.4300461.5321121.5607834.8669739c.1307297.3348618.1960983.6972504.1960983 1.0871582 0 .8577957-.272934 1.5733948-.8188095 2.1467896-.5458679.5733948-1.2522888.8807297-2.1192627.92202v1.2522888zm0-10.8440399c-.4816513.0733948-.8612366.2660561-1.1387558.57798-.2775269.3119278-.4162903.6811943-.4162903 1.1077995 0 .42202.1181183.7752304.3543625 1.0596352.2362366.2844048.636467.511467 1.2006836.6811905zm.7293625 8.559639c.4816513-.0596313.8795853-.2683487 1.1938095-.626152.3142166-.3577957.4713287-.8004532.4713287-1.32798 0-.4495392-.1112366-.8107758-.3337173-1.0837173-.2224731-.272934-.6662827-.5171967-1.3314209-.7327957z" fill="#fed35b"/><path d="m81.7213898 36.2305717h-12.7393875c-.4589996 0-.8310394.3720398-.8310394.8310394 0 .4588776.3720398.8309174.8310394.8309174h12.7393875c.4589996 0 .8310394-.3720398.8310394-.8309174 0-.4589996-.3720398-.8310394-.8310394-.8310394z" fill="#344d5b"/></svg>