<svg enable-background="new 0 0 140 140" height="512" viewBox="0 0 140 140" width="512" xmlns="http://www.w3.org/2000/svg"><circle cx="70" cy="70" fill="#dad7dc" r="64"/><path d="m133.0600586 59.1400146c.6098633 3.5299683.9399414 7.1599732.9399414 10.8599854 0 35.3499756-28.6500244 64-64 64-7.5900879 0-14.8800049-1.3300171-21.6300049-3.7600098l-24.1700439-24.1699829c-.8299561-.5599976-1.3798828-1.5200195-1.3798828-2.6000366 0-1.7399902 1.4099121-3.1499634 3.1499023-3.1499634h2.8400879v-53.9400024c0-3.4899902 2.8399658-6.3300171 6.3299561-6.3300171h36.3199463v-4.6300049c0-2.0299683 1.6600342-3.6799927 3.6900635-3.6799927h28.9799805c.9799805 0 1.8599854.3900146 2.5200195 1.0200195l.0198974-.0100097z" opacity=".1"/><path d="m104.8579102 40.0545273h-69.7158051c-3.4948349 0-6.3278828 2.833046-6.3278828 6.3278122v53.9395905h82.3714981v-53.9395905c.000002-3.4947663-2.833044-6.3278122-6.3278102-6.3278122z" fill="#344e5c"/><path d="m34.8143158 94.3221436v-47.939457c0-.1777344.1499023-.328125.3276367-.328125h69.7158203c.1777344 0 .328125.1503906.328125.328125v47.9394569h-70.371582z" fill="#509fd7"/><path d="m54.240139 78.0879135c.431942 2.6862259 2.7595177 4.7470474 5.5656509 4.7470474 2.8061714 0 5.1337776-2.0608215 5.5656853-4.7471085-.9906845-.689415-.9460678-1.6375122-.9460678-1.6375122v-2.9362411h-9.2391663v2.9362411c0 .0000001.0446549.9481278-.9461021 1.6375733z" fill="#d6b24e"/><path d="m67.0867767 61.3012733c-.0015717 0-.0031052.000473-.0046692.000473-.0982742-4.0045776-3.3330956-7.2499504-7.2762642-7.2499504h-.0000381c-3.9431686 0-7.17799 3.2453728-7.2762642 7.2499504-.0015678 0-.0030975-.000473-.0046654-.000473-.8039513 0-1.4556274 1.313633-1.4556274 2.9340401 0 1.6204147.6516762 2.9340286 1.4556274 2.9340286v.6077957c0 4.0902405 3.2764282 7.4368286 7.2809296 7.4368286h.0000381c4.0045013 0 7.2809334-3.3465881 7.2809334-7.4368286v-.6077957c.8039093 0 1.4556274-1.3136139 1.4556274-2.9340286.0000001-1.6204071-.6517181-2.9340401-1.4556274-2.9340401z" fill="#ffd25a"/><path d="m63.9351387 53.136055s-7.692276-4.9762917-11.9338264 1.6340141c-3.2936058 5.1330223-1.1692734 9.497654-.0550041 10.8149452l1.1985016.5339203v-4.1777382c.5666618-1.5105934 1.6267395-2.6759186 3.6012917-1.3035583 1.5533295 1.0796204 2.8515053.9545059 3.8552055.4046135 2.1748009-1.1914253 4.7611961-.5971642 6.1254387 1.1843452v3.8923378h.8590317l.9426193-2.2923012c2.4442824-11.2485732-4.593258-10.6905784-4.593258-10.6905784z" fill="#293b44"/><path d="m61.6325417 78.8530197 3.9649314 1.9492493-4.1188964 12.0765381-1.2114411-2.7728577-.1076851-9.7453613z" fill="#e6e7e8"/><path d="m81.1716232 94.3221436c-.1441116-4.759964-.1976013-9.645607-2.1778488-12.132782-1.9655075-2.468544-11.7455826-4.6208801-11.7455826-4.6208801l-1.8063126 2.0163803-.2352219 1.0249786-.915802 4.0159683-1.0754242 4.7469177-1.4605637 4.9494171h19.4167558z" fill="#d5693c"/><path d="m64.4387512 76.1277618-4.6377525 2.4151764 3.6175957 2.2593308z" fill="#dad7dc"/><path d="m57.9694557 78.8530197-3.9649353 1.9492493 4.1188965 12.0765381 1.211441-2.7728577.1076851-9.7453613z" fill="#e6e7e8"/><path d="m57.8635941 94.3221436-1.4787025-4.9494171-1.0922165-4.7972946-.898941-3.9655914-.2352905-1.0249786-1.8063087-2.0163803s-9.7799377 2.1524124-11.7454453 4.6208801c-1.9802475 2.48703-2.0338097 7.3727493-2.1755066 12.132782h19.4324111z" fill="#d5693c"/><path d="m55.1632462 76.1277618 4.6377525 2.4151764-3.6175957 2.2593308z" fill="#dad7dc"/><path d="m58.1773872 94.3221436h3.2473908l.2019195-.3808899-.9945144-12.6752015.8608932-1.6623458-1.692028-1.0538178-1.6920319 1.0538178.8608246 1.6623458-.9943771 12.6752015z" fill="#f37735"/><path d="m51.6378288 85.3475494 4.6434822 8.9745942h2.8524742l-3.9635391-18.1915589-2.8199539 1.4397354-1.0093231 5.2540665 2.3748054 1.3061142z" fill="#cb5c38"/><path d="m63.3207817 94.3221436 4.6434822-8.9745942-2.0778732-1.2170486 2.374733-1.3061142-1.0092545-5.2540665-2.8200912-1.4397354-3.9634705 18.1915589z" fill="#cb5c38"/><path d="m104.1251297 31.7367249h-28.9770508c-2.0266113 0-3.6848145 1.6582031-3.6848145 3.6848145v14.9455566c0 2.0266113 1.6582031 3.6846924 3.6848145 3.6846924h1.4462891v6.4034424l6.4034424-6.4034424h21.1273193c2.0266113 0 3.6846924-1.6580811 3.6846924-3.6846924v-14.9455567c0-2.0266113-1.6580811-3.6848144-3.6846924-3.6848144z" fill="#feed32"/><g fill="#e7a04e"><circle cx="79.349" cy="42.894" r="3.514"/><circle cx="89.637" cy="42.894" r="3.514"/><circle cx="99.924" cy="42.894" r="3.514"/></g><path d="m114.0323563 100.2219238h-88.0648022c-1.7387638 0-3.1483116 1.4095459-3.1483116 3.1483078v.0000076c0 1.7387619 1.4095478 3.1483078 3.1483116 3.1483078h88.0648041c1.7387619 0 3.1483078-1.4095459 3.1483078-3.1483078v-.0000076c-.0000019-1.7387619-1.4095478-3.1483078-3.1483097-3.1483078z" fill="#e6e7e8"/><circle cx="70" cy="103.37" fill="#dad7dc" r="1.793"/></svg>