<svg enable-background="new 0 0 140 140" height="512" viewBox="0 0 140 140" width="512" xmlns="http://www.w3.org/2000/svg"><circle cx="70" cy="70" fill="#de594e" r="64"/><path d="m121.2432175 68.1470261-.6099854-.6099854-48.1700439-48.1699238h-4.9199829v11.1499023h-3.2000122l10.2800293 10.2800312c-2.3500366-.8800049-4.4799805-1.0600586-5.3500366-1.0100098-1.7999878.1099854-1.8499756 1.3800049-1.7599487 2.0400391-.0100098 0-.0300293.0100098-.0400391.0100098l-.4099731-.4100342c-.0200195-.0200195-.0400391-.0500488-.0700073-.0699463l-.0200195-.0200195c-.3299561-.2700195-.7999878-.5100098-1.4799805-.5100098-.4899902 0-1.0800171.1298828-1.7999916.4399414-3.1199951 1.3900146-7.3400269 4.6300049-7.5800171 12.4599609 0 0-.2800293 1.7399902.2600098 4.0300293-.8699951.4599609-1.2000122 2.1700439-.7399902 4.0400391.2799683 1.1398926.7999878 2.0700684 1.3800049 2.6499023l7.6900063 7.3200684v2.1000977h-3.6300087c-3.1100464 0-5.960022.9699707-8.3400269 2.6398926-.3099976.1899414-.5999756.4200439-.8900146.6500244-1.5700073 1.2700195-2.8699951 2.8800049-3.7999878 4.710083l-11.8699954-11.8701172-5.6599712-5.6599121v3.1999512h-11.1500244v4.9199219l27.0599957 27.0600586v.7099609l33.068058 33.0681076c27.1798706-4.0415039 48.7656174-25.1725998 53.5152512-52.1147385l-11.763298-11.7633057v-1.2700194z" opacity=".1"/><path d="m64.70504 69.871841h10.493755v13.016214h-10.493755z" fill="#d6b24e"/><path d="m88.1531906 77.1570358c-.2699585-.2299805-.5599976-.460083-.8699951-.6500244l-.0134277.0076904.003418-.0076904c-2.3499756-1.6499023-5.25-2.6398926-8.3599854-2.6398926h-3.6300049l-5.2299805 8.5599365h-.0700073l-5.2299805-8.5599365h-3.6799965c-3.1100464 0-5.9500122.9699707-8.3300171 2.6398926h-.0100098v.0100098c-.3200073.1799316-.5999756.4100342-.8900146.6400146-3.2999878 2.6700439-5.4199829 6.7799072-5.4199829 11.3699951v11.6999512h9.2999878v-.0100098h28.5600014v-.0129395l.0100098.0229492h9.2800293v-11.6999511c0-4.5900878-2.1199952-8.6999511-5.420044-11.3699951z" fill="#27a2db"/><path d="m83.439949 57.652916c-1.0361938-.2577591-2.2859802 1.1810188-2.7916031 3.2136307-.5056229 2.032608-.075592 3.8892517.9606018 4.1470108 1.0360184.2577133 2.2858047-1.1810608 2.7914276-3.2136726.5056229-2.0326081.0755921-3.8892518-.9604263-4.1469689z" fill="#fed35b"/><path d="m56.595623 57.652916c1.0361977-.2577591 2.2859879 1.1810188 2.7916107 3.2136307.5056229 2.032608.0755882 3.8892517-.9606094 4.1470108-1.0360146.2577133-2.2858047-1.1810608-2.7914276-3.2136726-.5056229-2.0326081-.0755882-3.8892518.9604263-4.1469689z" fill="#fed35b"/><path d="m82.9242477 58.3863792c-.1054611.5485725-.232048 1.1182671-.4008713 1.6878319-1.8566513 6.3928223-6.7724457 12.9965744-12.5534592 12.9965744-5.9707069 0-11.0132103-7.0679855-12.7221603-13.6717339-.0211182-.1265831-.0633583-.2742882-.0843468-.4008713 1.4477463-8.365757 6.7092171-12.108654 10.7178001-13.1424446 4.2407608 3.5867233 7.9664841 5.7930717 11.7007828 5.708725 1.9411241 1.7511902 3.1945573 4.9020348 3.3422547 6.8219185z" fill="#fcd462"/><path d="m69.2706451 39.7840614c-1.7979279.1123695-1.8482971 1.3875885-1.7535782 2.0432625-.0344925.0064316-.0702133.0092392-.1045685.0159454-.3785858-.593811-1.4034653-1.5968628-3.7154694-.5741692-3.1287117 1.3838234-7.340332 4.6327705-7.5809479 12.4543343 0 0-.6123581 3.7704926 1.67939 7.48069h1.0281677s-.5135345-3.4987335.7048798-7.0520821c2.503624-4.12286 5.3387451-6.0226822 8.352623-6.8000374 4.2407761 3.5867462 8.2495575 5.5909996 11.9837723 5.5066185.2811356.2535515.5359879.5099754.7768784.7678413.7032318 2.3384895.5931931 4.7779198.3093262 6.5948677h1.6177979c.7931595-2.7793503.7562027-5.2950859.7562027-5.2950859.6218032-13.6208075-11.6261292-15.2939719-14.054474-15.1421851z" fill="#344d5b"/><g fill="#ededed"><path d="m109.4859924 64.3390274-5.6609726 5.6609039 5.6609726 5.6610413v-3.2024994h11.1492234v-4.9169464h-11.1492234z"/><path d="m30.5140057 64.3390274 5.6609706 5.6609039-5.6609706 5.6610413v-3.2024994h-11.1492196v-4.9169464h11.1492196z"/><path d="m64.3390274 30.5140057 5.6609039 5.6609706 5.6610413-5.6609706h-3.2024994v-11.1492196h-4.9169464v11.1492196z"/><path d="m64.3390274 109.4859924 5.6609039-5.6609726 5.6610413 5.6609726h-3.2024994v11.1492234h-4.9169464v-11.1492234z"/></g><g fill="#2d93ba"><path d="m93.5721664 88.5295486v11.6952362h-9.279335v-16.9266128l2.989212-6.7883148c.3114395.1868896.6021042.4152069.8719864.6435318 3.3006516 2.6780243 5.4181366 6.7883148 5.4181366 11.3761596z"/><path d="m55.7280731 83.298172v16.9266129h-9.3002357v-11.6952363c0-4.5878448 2.117485-8.6981354 5.4182625-11.3761597.290535-.2283249.581192-.4566422.8926315-.6435318z"/></g></svg>