<svg enable-background="new 0 0 140 140" height="512" viewBox="0 0 140 140" width="512" xmlns="http://www.w3.org/2000/svg"><circle cx="70" cy="70" fill="#dad7dc" r="64"/><path d="m133.4499512 61.7299805c.3500976 2.7099609.5500488 5.4699707.5500488 8.2700195 0 35.3500977-28.6500244 64-64 64-5.6300049 0-11.0900269-.7299805-16.289978-2.1000977l-27.0500488-27.0498047-.2799683-.2900391.0100098-.0100098c-2-2.2299805-3.2300415-5.170166-3.2300415-8.4001465 0-6.0097656 4.2200317-11.0297852 9.8600464-12.2797852v-13.2602537c0-1.5097656 1.2199707-2.7299805 2.7299805-2.7299805h21.8800049l-13.880005-13.8798828.0999756-.0600586c-.7299805-.7800293-1.1799927-1.8198242-1.1799927-2.9699707v-23.5700684c0-2.4099121 1.9500122-4.369873 4.3699951-4.369873h45.9199829c1.2700195 0 2.4000244.5500488 3.1999512 1.4099121z" opacity=".1"/><path d="m104.2539444 67.8811417h-31.5230866v-28.0319062c0-1.5082588-1.2223969-2.7306557-2.7306595-2.7306557s-2.7306519 1.2223969-2.7306519 2.7306557v28.0319061h-31.5236281c-1.5082626 0-2.7306557 1.2223969-2.7306557 2.7306595v25.5401764c0 1.5082626 1.222393 2.7306519 2.7306557 2.7306519s2.7306557-1.2223892 2.7306557-2.7306519v-22.8095245h28.7929726v22.8095245c0 1.5082626 1.2223892 2.7306519 2.7306519 2.7306519s2.7306595-1.2223892 2.7306595-2.7306519v-22.8095245h28.7924347v22.8095245c0 1.5082626 1.2223969 2.7306519 2.7306519 2.7306519 1.5082626 0 2.7306595-1.2223892 2.7306595-2.7306519v-25.5401764c-.0000002-1.5082626-1.2223971-2.7306594-2.7306597-2.7306594z" fill="#e6e7e8"/><path d="m92.9627228 23.0300961h-45.9253769c-2.4129906 0-4.3690529 1.9562588-4.3690529 4.369051v23.569519c0 2.4127922 1.9560623 4.3690491 4.3690529 4.3690491h45.9253769c2.4129257 0 4.3690491-1.9562569 4.3690491-4.3690491v-23.5695191c0-2.4127922-1.9561234-4.3690509-4.3690491-4.3690509z" fill="#4388b9"/><g fill="#ba9a43"><circle cx="35.746" cy="96.152" r="12.586"/><circle cx="70" cy="96.152" r="12.586"/><circle cx="104.254" cy="96.152" r="12.586"/></g><circle cx="104.254" cy="96.152" fill="#e7a04e" r="5.078"/><circle cx="70" cy="96.152" fill="#e7a04e" r="5.078"/><circle cx="35.746" cy="96.152" fill="#e7a04e" r="5.078"/><g fill="#dad7dc"><path d="m50.565731 33.2569046h38.8684044c.8059082 0 1.465271-.6594238 1.465271-1.465332s-.6593628-1.465332-1.465271-1.465332h-38.8684044c-.8059082 0-1.465271.6594238-1.465271 1.465332s.6593628 1.465332 1.465271 1.465332z"/><path d="m89.4341354 37.7188187h-38.8684044c-.8059082 0-1.465271.6594238-1.465271 1.465332s.6593628 1.465332 1.465271 1.465332h38.8684044c.8059082 0 1.465271-.6594238 1.465271-1.465332s-.6593628-1.465332-1.465271-1.465332z"/><path d="m81.2018967 45.1113968h-22.4039879c-.8058472 0-1.46521.6591797-1.46521 1.465332 0 .8056641.6593628 1.4650879 1.46521 1.4650879h22.4039879c.8059082 0 1.465271-.6594238 1.465271-1.4650879 0-.8061523-.6593628-1.465332-1.465271-1.465332z"/></g></svg>