<svg enable-background="new 0 0 140 140" height="512" viewBox="0 0 140 140" width="512" xmlns="http://www.w3.org/2000/svg"><circle cx="70" cy="70" fill="#fed35b" r="64"/><path d="m110.1127472 37.4182549c-.0599976-.0500488-.1100464-.0998535-.1600342-.1599121l-.0800171-.0800781-.0099487.0100098c-.6200562-.5400391-1.4200439-.880127-2.3000488-.880127h-21.6499634l-5.8699951-5.869875c-2.5100098-2.5400391-5.9800415-4.119873-9.8300171-4.119873-6.289978 0-11.5999756 4.2299805-13.2700195 9.989748h-24.0299683c-1.9299946 0-3.5000019 1.5700684-3.5000019 3.5v53.6301231c0 .9899902.4199829 1.8898926 1.0899658 2.5200195l-.0100098.0100098 37.9932861 37.9934158c.5049438.0117188 1.0062256.0383301 1.5140381.0383301 35.3463135 0 64-28.6538162 64-64.0000076 0-3.1879883-.2410278-6.3188438-.69104-9.381588z" opacity=".1"/><path d="m59.611664 95.351837h22.924322v9.955603h-22.924322z" fill="#293b44"/><path d="m107.5618668 36.3118744h-74.650238c-1.9313965 0-3.4971371 1.5659409-3.4971371 3.4972687v52.3164597h81.6445084v-52.3164597c.0000056-1.9313279-1.5657369-3.4972687-3.4971333-3.4972687z" fill="#ededed"/><path d="m29.4144955 89.1928253v4.2439194c0 1.9313278 1.5657406 3.4970016 3.4971371 3.4970016h74.650238c1.9313965 0 3.497139-1.5656738 3.497139-3.4970016v-4.2439194z" fill="#304551"/><path d="m34.714932 41.748913h71.043633v42.54541h-71.043633z" fill="#4da0dc"/><path d="m90.0606613 104.0849228h-37.1342735c-.8746338 0-1.5836792.7089844-1.5836792 1.5837402s.7090454 1.5837402 1.5836792 1.5837402h37.1342735c.8746338 0 1.5836792-.7089844 1.5836792-1.5837402s-.7090454-1.5837402-1.5836792-1.5837402z" fill="#344d5b"/><path d="m84.041153 48.9653358h-1.1369476v-8.8253975c0-6.9956245-5.691391-12.6870155-12.6870117-12.6870155-6.9963646 0-12.6877556 5.691391-12.6877556 12.6870155v8.8253975h-1.1369476v-8.8253975c0-7.62257 6.2013893-13.8239613 13.8247032-13.8239613 7.6225739 0 13.8239594 6.2013912 13.8239594 13.8239613v8.8253975z" fill="#293b44"/><path d="m65.008354 55.74662h10.434015v12.265545h-10.434015z" fill="#d6b24e"/><path d="m92.5506134 84.2943268c-.0597687-1.5902328-.1749573-3.4200363-.3858719-5.4235306-.4345856-4.1290665-1.0027618-6.6556549-1.3763123-7.9902039-.2218323-.7930679-.696907-1.484993-1.3479004-1.9889374-5.4800339-4.2442627-13.6634674-6.7624168-13.6634674-6.7624168l-5.5410767 5.8830223v.0033188l-5.5395507-5.8812332s-8.1834908 2.5178986-13.6634636 6.7624207c-.6509285.5039368-1.1260681 1.1958618-1.3479004 1.9889297-.3735466 1.3345566-.9417191 3.8611374-1.3763771 7.9899597-.2106552 2.001442-.3257828 3.8297195-.3856163 5.4186707z" fill="#293b44"/><path d="m62.0393333 74.112381.3083534 2.5281143c.8141403 3.1500626 1.8844681 5.6717911 2.9729233 7.6538315h9.8325958c1.0887146-1.9830627 2.1592941-4.5068359 2.9736938-7.6579132l.3082886-2.5281219 1.1714706-1.9733505.6691895-8.3311882c-1.1137466-.4699669-2.1031036-.843132-2.8683929-1.1169395-1.0111313-.3670349-1.6302032-.5570641-1.6302032-.5570641l-5.5408173 5.8837852v.0020447l-5.5391693-5.8817444s-.6191254.190033-1.6301956.5570679c-.7652931.2738037-1.7546501.6469688-2.8683968 1.1169357l.6691284 8.331192z" fill="#dbd8dd"/><path d="m71.3648605 68.0121613h-2.4148712l-1.207428 3.2822036 1.207428 2.0913468h2.4148712l1.2074356-2.0913468z" fill="#dd584d"/><path d="m75.4661484 60.902832-5.2301865 7.1095047 3.6584244 4.3779984 4.2303085-9.4180679z" fill="#ededed"/><path d="m65.0083542 60.9069099 5.2301864 7.1095086-3.6584243 4.3779983-4.2303086-9.4180717z" fill="#ededed"/><path d="m71.9769669 84.2943268-.5852814-11.1959534h-2.468544l-.609108 11.1959534z" fill="#dd584d"/><path d="m60.0991249 76.5319443c.825634 3.1947556 2.1384773 5.7530136 3.5487633 7.7623825h3.4427032c-3.5904007-9.1280975-3.9833565-19.7567596-4.0235214-21.6034241-.0062599-.1836472-.0062599-.2801933-.0062599-.2801933l-2.8621368 1.3971291-1.1231346 9.4233551 1.9351044 1.365715z" fill="#344d5b"/><path d="m76.8245316 84.2943268c1.4111099-2.010643 2.7248459-4.5701828 3.5508652-7.7664642l-.9115829-1.9350433 1.9351654-1.365715-1.1231308-9.4233513-2.8621979-1.3968773s0 .0962944-.0061951.2799377c-.0401688 1.8466644-.4332504 12.4783936-4.0235214 21.6075134z" fill="#344d5b"/><path d="m81.9460297 46.4927216c-.7506027-.145359-1.5735016.8437958-1.8379364 2.2092628-.2644501 1.3655396.1296844 2.5903854.8802948 2.7357483.7506409.1453667 1.5735016-.8437958 1.8379517-2.2093315.2644347-1.3654671-.1296616-2.5903092-.8803101-2.7356796z" fill="#feda6f"/><path d="m58.6976089 46.4927216c.7506065-.145359 1.5735054.8437958 1.8379402 2.2092628.2644463 1.3655396-.1296883 2.5903854-.8802948 2.7357483-.7506447.1453667-1.5735054-.8437958-1.8379555-2.2093315-.2644347-1.3654671.1296655-2.5903092.8803101-2.7356796z" fill="#feda6f"/><path d="m81.3366165 44.2127953c0-4.6638412-2.6035995-6.8955574-6.4883881-8.0586243v.5611572l-4.7483139-3.9641991c-5.9223328.3763313-11.5488586 5.3842392-11.5488586 11.4287109 0 1.304245.2148895 2.7663727.616272 4.2712517 1.5479698 5.9342422 5.9483795 12.4559174 11.1513367 12.4559174 5.2604065 0 9.7180481-6.7225342 11.2086716-12.7280312.358406-1.4046783-.1907197-2.7331962-.1907197-3.9661826z" fill="#fcd462"/><path d="m70.2384949 29.4623699v-.0069046c-.0237122.0004463-.0455322.0031185-.069252.0035629-.0237122-.0004444-.0455399-.0031166-.069252-.0035629v.0069046c-8.2501297.1291542-12.7420616 5.397356-12.0317078 12.2523823.3876877 3.7412758 1.1369019 7.2505112 1.1369019 7.2505112h.7180367s.4188614-4.0124969 1.0771103-8.3062439c.610817-3.9844398 8.0310097-2.9398422 9.099659-2.7683754v.022934s.0361862-.0062332.069252-.0118027c.0330734.0055695.069252.0118027.069252.0118027v-.022934c1.0686493-.1714668 8.4888458-1.2160645 9.0996628 2.7683754.6582489 4.2937469 1.0771103 8.3062439 1.0771103 8.3062439h.717926s.749321-3.5092354 1.1370087-7.2505112c.7103575-6.8550262-3.781685-12.1232281-12.0317079-12.2523823z" fill="#293b44"/><path d="m72.9810944 58.0216751c-.4085846 0-.8282776-.0207253-1.259079-.0621796l.0725403-.7550011c2.6195679.2531471 4.7824326-.3138466 6.4360352-1.679512 2.8283005-2.3382912 3.2257919-6.2835541 3.2294922-6.3227844l.7549973.0695801c-.0162811.1739464-.4248734 4.2894554-3.4959564 6.833519-1.5381395 1.2738838-3.4641344 1.916378-5.7380296 1.916378z" fill="#293b44"/><path d="m84.3742676 45.6219902h-1.8031082c-.263855 0-.4777298.213871-.4777298.4776611v4.5842705c0 .2637901.2138748.4778061.4777298.4778061h1.8031082c.2638245 0 .4776993-.214016.4776993-.4778061v-4.5842705c0-.2637901-.2138749-.4776611-.4776993-.4776611z" fill="#dd584d"/><path d="m82.029953 44.7466545h-1.3754272c-.3472443 0-.6287079.2814598-.6287079.6286125v6.0329971c0 .3471527.2814636.6287994.6287079.6287994h1.3754272c.3471985 0 .6286621-.2816467.6286621-.6287994v-6.0329971c0-.3471527-.2814636-.6286125-.6286621-.6286125z" fill="#344d5b"/><path d="m56.0596924 45.6219902h1.8031082c.2638588 0 .4777336.213871.4777336.4776611v4.5842705c0 .2637901-.2138748.4778061-.4777336.4778061h-1.8031082c-.2638245 0-.4776955-.214016-.4776955-.4778061v-4.5842705c0-.2637901.213871-.4776611.4776955-.4776611z" fill="#dd584d"/><path d="m58.404007 44.7466545h1.3754311c.3472443 0 .6287041.2814598.6287041.6286125v6.0329971c0 .3471527-.2814598.6287994-.6287041.6287994h-1.3754311c-.3471985 0-.6286583-.2816467-.6286583-.6287994v-6.0329971c0-.3471527.2814598-.6286125.6286583-.6286125z" fill="#344d5b"/><path d="m71.28479 56.0730972c-1.3837051 0-2.5054779.7501945-2.5054779 1.6759987 0 .9256172 1.1217728 1.6759949 2.5054779 1.6759949 1.3837585 0 2.5055313-.7503777 2.5055313-1.6759949.0000001-.9258041-1.1217727-1.6759987-2.5055313-1.6759987z" fill="#293b44"/><path d="m70.584404 90.8965149c-.9318771 0-1.687355.7555542-1.687355 1.6874313 0 .9318695.7554779 1.6874313 1.687355 1.6874313.9319458 0 1.6874237-.7555618 1.6874237-1.6874313 0-.9318771-.7554779-1.6874313-1.6874237-1.6874313z" fill="#344d5b"/></svg>