<svg enable-background="new 0 0 140 140" height="512" viewBox="0 0 140 140" width="512" xmlns="http://www.w3.org/2000/svg"><circle cx="70" cy="70" fill="#4abaa4" r="64"/><path d="m62.7999878 55.3499756v-4.039978l-.5599976-.5599976h.0200195c-2.210022-2.1199951-3.6099854-5.1199951-3.6099854-8.4400024v-.4299927l-1.0400391-1.0300293h.0200195c-.7399902-.7600098-1.25-2.289978-1.25-4.0700073 0-.0299683.0100098-.0700073.0100098-.1099854-1.4700317-3.1300049-2.4800415-8.539978 1.4500122-14.6500244 6.6099854-10.3099976 18.6099854-2.5499878 18.6099854-2.5499878s.0899658-.0100098.25-.0100098c.7699585 0 3.1900024.1700439 5.1099854 2.1000366l.0300293.0299683c.0199585.0200195.039978.0400391.0499878.0500488l41.9599609 41.9599609c.0100098.0100098.0300293.0300293.0500488.0499878l9.9899902 9.9900513c-1.8900145 33.6499634-29.7700194 60.3599854-63.8900145 60.3599854-1.4299927 0-2.8499756-.0599976-4.2600098-.1600342l-43.4799804-43.4799804 12.8499756-12.8400269 1.210022 1.210022c1.289978-7.3599854 3.75-13.9500122 3.75-13.9500122l18.3099976-7.2000122 4.3900146-2.2399902h.0100098z" opacity=".1"/><path d="m61.3268471 58.3891106c.6736908 4.1896362 4.3039513 7.4038429 8.6806068 7.4038429 4.376709 0 8.0070267-3.2142067 8.6806641-7.4039459-1.5451584-1.0752602-1.475563-2.553978-1.475563-2.553978v-4.579586h-14.4100953v4.579586s.0696449 1.4787674-1.4756126 2.554081z" fill="#d6b24e"/><path d="m81.3634186 32.2074127c-.002449 0-.004837.0007362-.0072784.0007362-.1532745-6.2458382-5.1985474-11.3075619-11.3486023-11.3075619h-.000061c-6.1500587 0-11.1953278 5.0617237-11.3486023 11.3075619-.0024452 0-.0048332-.0007362-.0072784-.0007362-1.2539024 0-2.2703056 2.0488396-2.2703056 4.5761528s1.0164032 4.5761185 2.2703056 4.5761185v.9479637c0 6.3794479 5.1101646 11.5990334 11.3558807 11.5990334h.000061c6.2457123 0 11.3558807-5.2195854 11.3558807-11.5990334v-.9479637c1.2538376 0 2.2703018-2.0488052 2.2703018-4.5761185s-1.0164642-4.5761528-2.2703018-4.5761528z" fill="#ffd25a"/><path d="m76.4478912 19.472332s-11.9974442-7.7613974-18.6128845 2.5485287c-5.1369476 8.0058441-1.8236847 14.8132458-.0857887 16.8677921l1.869278.8327484v-6.5159187c.8838043-2.3560333 2.5371819-4.1735611 5.6168327-2.033123 2.422699 1.683857 4.4474258 1.4887161 6.0128708.6310654 3.391983-1.8582363 7.4259186-.9313831 9.553688 1.8471909v6.0707855h1.3398209l1.4701691-3.5752487c3.8122863-17.5441133-7.1639863-16.6738206-7.1639863-16.6738206z" fill="#293b44"/><path d="m72.8565903 59.5824203 6.1840057 3.0401955-6.4241409 18.8354683-1.8894501-4.3247528-.1679535-15.1995926z" fill="#e6e7e8"/><path d="m104.4225006 87.5828705s-4.0047226 2.4537811-11.3660812 4.3983612c-.5787277.162056-1.1574554.3241196-1.7825241.4630051-5.5326385 1.3195114-12.6855927 2.2685547-21.2739182 1.875061l5.3242416-18.3340912 3.4723434-15.2551003 2.8242493-3.1482277 18.3107834 7.199295c0 .0000001 4.8382035 12.9171754 4.4909058 22.8016969z" fill="#344e5c"/><path d="m77.2333603 55.3319092-7.2333832 3.7668876 5.642273 3.523819z" fill="#dad7dc"/><path d="m67.1433716 59.5824203-6.1840096 3.0401955 6.4241371 18.8354683 1.8894577-4.3247528.1679459-15.1995926z" fill="#e6e7e8"/><path d="m69.9999771 94.3192978c-8.5881805.3934937-15.7412796-.5555496-21.2739182-1.875061-.6249275-.1388855-1.2036514-.3009491-1.7823753-.4630051-7.3615036-1.9445801-11.36623-4.3983612-11.36623-4.3983612-.3471489-9.8845215 4.4909058-22.8016968 4.4909058-22.8016968l18.3109245-7.199295 2.8241081 3.1482277 3.4723511 15.2551003z" fill="#344e5c"/><path d="m62.7665939 55.3319092 7.2333832 3.7668876-5.6422729 3.523819z" fill="#dad7dc"/><path d="m72.8473969 83.1151276-2.8474198 5.3705825-2.8472748-5.3705825 1.5509415-19.7691765-1.3426819-2.5926743 2.6390152-1.643631 2.6390228 1.643631-1.3426818 2.5926743z" fill="#f37735"/><g fill="#293b44"><path d="m79.4911423 67.8136902 3.240776 1.8982315-12.7319412 24.6073761-12.7319374-24.6073761 3.2409134-1.8982315-3.7039223-2.0371246 1.5742531-8.1946869 4.3982239-2.2455254 7.2224693 33.1493568 7.2224732-33.1493568 4.3983612 2.2455254 1.5741119 8.1946869z"/><path d="m50.485405 75.3834534-1.759346 17.0607834c-.6249275-.1388855-1.2036514-.3009491-1.7823753-.4630051z"/><path d="m93.0564194 91.9812317c-.5787277.162056-1.1574554.3241196-1.7825241.4630051l-1.7593384-17.0607834z"/></g><path d="m117.7365723 90.3625107-12.8419266-12.8420105v7.3212509h-69.7892876v-7.3212509l-12.8419266 12.8419266 12.8419266 12.8420105v-7.321251h29.3740044v14.6220627h-7.3212471l12.8419227 12.8419266 12.8420105-12.8419266h-7.3212509v-14.6220627h29.373848v7.321251z" fill="#ececec"/></svg>